<?xml version="1.0" encoding="utf-8"?>
<!-- Generator: Adobe Illustrator 16.0.0, SVG Export Plug-In . SVG Version: 6.00 Build 0)  -->
<!DOCTYPE svg PUBLIC "-//W3C//DTD SVG 1.1//EN" "http://www.w3.org/Graphics/SVG/1.1/DTD/svg11.dtd">
<svg version="1.1" id="Слой_1" xmlns="http://www.w3.org/2000/svg" xmlns:xlink="http://www.w3.org/1999/xlink" x="0px" y="0px"
	 width="412px" height="412px" viewBox="0 0 412 412" enable-background="new 0 0 412 412" xml:space="preserve">
<circle fill="#FFFFFF" stroke="#272624" stroke-width="2" stroke-miterlimit="10" cx="206" cy="206" r="202.926"/>
<path fill="#979695" d="M233.335,287.472c3.366,7.23,6.428,14.27,6.835,22.02c0.258,4.898,0.427,13.668,6.689,15
	c14.801,3.139,27.354-8.211,33.404-20.705c7.75-16,2.873-29.535-0.639-45.92c-2.322-10.832,2.713-27.231-2.49-36.646
	c7.615,13.777,29.281,8.725,40.029,1.965c14.314-9.002,23.449-24.354,23.828-41.339c0.473-21.308-7.795-43.075-23.902-57.272
	c-38.385-33.834-104.904-25.504-125.39,25.729c-4.799,12.003-3.931,21.265-1.242,33.124c3.126,13.79,2.989,27.533,8.134,41.002
	C207.275,247.166,223.141,265.577,233.335,287.472z"/>
<path fill="#AFAFAF" d="M206.404,344.954c-7.945-0.496-15.92-0.965-23.845-1.734c-2.561-0.248-4.265-0.758-6.283-2.363
	c-1.035-0.822-2.351-2.559-3.861-2.252c-0.889,0.182-1.331,1.379-2.109,1.824c-2.137,1.219-4.884,1.705-7.32,1.635
	c-1.867-0.055-4.84,0.133-6.525-0.559c-4.095-1.682-7.138-5.551-9.276-9.281c-1.571-2.738-2.67-5.678-4.313-8.387
	c-0.93-1.531-1.059-2.838-0.797-4.594c0.317-2.113-0.287-4.541-0.659-6.615c-0.796-4.426-2.061-8.725-3.228-13.061
	c-2.567-9.549-8.638-21.969-3.111-31.402c3.928-6.703,8.599-3.955,9.363-13.006c1.353-16.043-6.922-27.041-10.864-41.369
	c-5.347-19.432,2.836-36.338,16.046-49.899c4.995-5.127,10.163-8.725,17.222-10.815c9.288-2.75,20.218-3.097,29.178,1.16
	c15.05,7.149,6.936,26.002,12.063,38.33c3.237,7.785,10.123,13.283,14.878,20.061c5.763,8.211,11.295,16.702,19.285,22.969
	c8.57,6.721,18.328,13.059,24.148,22.504c19.336,31.396,7.291,84.229-34.504,87.469C223.453,346.222,214.83,345.481,206.404,344.954
	z"/>
<path fill="#AFAFAF" d="M166.713,270.868c-4.569-3.242-9.914-5.129-15.462-6.102c-3.796-0.666-9.848-2.779-13.329-0.092
	c-2.283,1.764-2.766,3.059-3.862,5.586c-3.684,8.486-0.88,22.277,1.648,30.748c1.651,5.531,3.752,10.635,3.806,16.471
	c0.046,5.162-3.503,5.85-7.695,7.889c-5.932,2.889-7.515,11.66-6.993,17.758c0.714,8.32,13.479,8.834,19.928,7.85
	c1.821-0.275,3.367-1.137,5.044-1.816c2.809-1.137,5.941-1.957,8.988-2.076c7.657-0.293,11.307-0.582,15.012-7.74
	c3.353-6.479,6.83-12.588,8.103-19.836c0.526-2.992,0.86-6.018,1.153-9.041C184.449,296.103,179.261,279.774,166.713,270.868z"/>
<path fill="#E2E2E2" d="M134.13,180.51c-2.383,6.055-3.461,12.881-3.461,19.373c0,8.644,7.03,17.382,11.983,24.17
	c5.552,7.609,10.325,16.653,14.122,25.247c8.865,20.066-3.219,43.564,0.13,64.193c1.754,10.803,8.431,20.059,16.582,27.422
	c7.792,7.039,20.901,7.822,30.564,5.113c12.748-3.574,18.25-11.508,21.185-23.998c3.294-14.037-0.62-35.867-8.007-48.016
	c-25.508-41.953-24.033-97.888-23.132-100.056c2.271-5.462,4.219-7.935,4.219-7.935c-5.033,1.787-15.464,2.041-20.779,1.915
	c-5.831-0.137-11.629-0.875-17.465-0.892C148.575,167.012,138.701,168.896,134.13,180.51z"/>
<path fill="#AFAFAF" d="M207.598,338.438c-3.126,1.896-6.792,2.961-7.941,7.496c-3.632,14.332,6.435,14.539,15.541,14.555
	c4.811,0.008,9.736,0.258,13.764-1.947c2.056-1.125,3.719-2.922,5.723-4.201c1.959-1.246,3.475-0.65,5.359-2.443
	c3.564-3.395,4.348-7.646,2.464-11.822c-2.961-6.551-13.585-17.92-21.288-13.133c-3.813,2.371-6.093,6.824-9.978,9.287
	C210.001,337.017,208.777,337.724,207.598,338.438z"/>
<path fill="#AFAFAF" d="M219.959,334.946c-0.643-0.389-0.68-0.643-0.111-0.766c6.279,1.373,12.767-7.676,14.809-12.549
	c3.486-8.32,3.562-21.76,2.92-30.627c-0.684-9.422,1.444-24.383-4.587-32.52c-3.687-4.963-10.782-3.541-15.606-1.32
	c-6.921,3.182-9.93,8.561-11.708,15.852c-2.969,12.17,0.153,24.641,4.609,36.029c3.875,9.904,10.609,19.264,1.6,28.748"/>
<path fill="#FBDB4A" d="M139.218,245.362c3.596,5.561,5.617,9.73,10.636,14.775c4.209,4.229,7.136,5.729,11.948,8.902
	c13.009,8.574,32.104-14.439,37.801-25.152c5.92-11.135,11.541-30.215-0.938-40.149c-7.646-6.086-23.982-5.17-33.295-5.168
	c-8.295,0.002-28.49-3.142-33.079,6.027c-1.757,3.51-1.789,14.051-1.463,17.839C131.469,229.918,135.321,239.335,139.218,245.362z"
	/>
<path fill="#AFAFAF" d="M140.377,170.003c-2.51,2.466-5.992,2.595-8.869,4.876c-4.654,3.69-6.021,8.833-7.075,14.415
	c-2.622,13.903-10.93,26.519-12.394,40.511c-0.819,7.885,7.815,11.922,13.557,14.531c4.517,2.053,10.963,5.941,16.09,5.881
	c5.035-0.063,10.837-1.912,14.714-5.258c2.538-2.191,4.382-6.766,1.811-9.732c-2.606-3.011-8.366-4.583-12.158-3.891
	c-3.036,0.555-8.29,1.172-11.014-0.655c-3.5-2.346-3.164-6.479-3.164-10.255c0-2.699,0.49-5.01,0.733-7.634
	c0.461-4.972,1.496-10.215,4.701-14.269c1.802-2.281,2.293-5.824,2.869-8.635c1.417-6.903,4.648-13.934,3.485-20.871"/>
<path fill="#AFAFAF" d="M207.91,206.472c-0.287-1.191-0.609-2.319-0.922-3.344c-3.226-10.596-19.281-22.692-10.621-34.632
	c3.382-4.664,5.354-5.767,7.183-5.22c13.723,4.1,20.407,28.346,26.983,39.973c2.57,4.543,7.361,14.176,6.134,19.208
	c-1.571,6.458-12.952,9.572-16.521,11.888c-3.873,2.509-4.167,6.953-27.193,14.217c-3.987,1.26-12.735-1.906-16.154-3.526
	c-5.025-2.383-6.429-6.483-6.364-8.517c0.123-3.842,4.279-6.251,7.297-7.765c4.204-2.108,9.486-1.984,14.089-2.556
	c5.456-0.678,12.885-1.041,15.798-6.588C209.559,215.916,208.957,210.8,207.91,206.472z"/>
<path fill="#FFFFFF" d="M141.486,157.45c0,0-5.768,10.378,4.939,21.972c8.252,8.936,15.125,10.577,15.125,10.577
	s7.506,1.078,19.419-5.986c20.028-11.875,20.268-20.707,20.028-24.977c-0.2-3.583-2.755-5.472-5.59-7.54
	c-4.916-3.585-10.272-6.71-16.05-8.68C163.859,137.535,150.144,143.98,141.486,157.45z"/>
<path fill="#AFAFAF" d="M212.082,104.836c-0.426-2.71-0.955-6.677-0.418-10.054c2.869-18.02-0.752-26.726-0.701-31.774
	c0.779,7.127-14.086,14.117-19.568,16.083c-3.654,1.31-10.899-5.396-22.437-5.532c-13.723-0.163-21.151,4.535-23.12,1.936
	c-3.536-4.668-8.74-5.285-11.64-14.936c-6.952,15.737-4.568,20.933-5.132,26.436c-0.539,5.272-7.178,14.54-7.65,19.847
	c-1.077,12.124,2.2,12.429-0.421,16.613c-7.158,11.432-5.377,27.623,6.615,34.814c18.628,11.17,25.036,18.542,32.635,18.542
	c13.707,0,25.429-9.265,29.282-10.813c7.51-3.018,21.882-6.25,25.372-24.023c1.848-9.404-2.299-14.485-2.773-18.96
	C211.439,116.529,212.911,110.125,212.082,104.836z"/>
<ellipse opacity="0.4" fill="#E8AFC9" cx="183.923" cy="148.829" rx="8.584" ry="6.971"/>
<ellipse opacity="0.4" fill="#E8AFC9" cx="138.377" cy="148.902" rx="8.583" ry="7.043"/>
<g>
	<path fill="#AFAFAF" d="M207.729,69.929c0,0,0.038-0.182,0.104-0.5c0.07-0.218,0.158-0.529,0.287-0.783
		c0.127-0.251,0.28-0.517,0.466-0.769c0.362-0.511,0.818-0.993,1.199-1.495l0.123-0.158l0.137-0.229l0.279-0.466
		c0.157-0.306,0.272-0.594,0.411-0.911c0.093-0.335,0.225-0.666,0.289-1.01c0.033-0.172,0.066-0.343,0.099-0.513l0.046-0.233
		l0.019-0.263c0.025-0.355,0.003-0.628-0.022-0.958c-0.027-0.319-0.054-0.621-0.077-0.899c-0.056-0.563,0.006-1.046,0.065-1.366
		c0.106-0.31,0.167-0.487,0.167-0.487s-0.029,0.182-0.082,0.5c-0.004,0.323,0.014,0.773,0.159,1.307
		c0.069,0.269,0.145,0.56,0.225,0.868c0.078,0.296,0.168,0.689,0.198,1.029l0.025,0.262l-0.003,0.296
		c-0.004,0.187-0.008,0.375-0.012,0.565c-0.008,0.382-0.086,0.767-0.13,1.159c-0.089,0.386-0.191,0.809-0.312,1.175
		c-0.066,0.17-0.132,0.339-0.197,0.506l-0.097,0.249c-0.072,0.162-0.096,0.191-0.146,0.292c-0.354,0.675-0.712,1.208-0.92,1.652
		c-0.111,0.22-0.176,0.414-0.227,0.578c-0.047,0.161-0.036,0.24-0.069,0.329c-0.011,0.325-0.018,0.51-0.018,0.51L207.729,69.929z"/>
</g>
<g>
	<path fill="#AFAFAF" d="M205.25,74.046c0,0,0.025-0.185,0.068-0.506c0.055-0.223,0.12-0.54,0.231-0.802
		c0.109-0.259,0.243-0.535,0.41-0.799c0.326-0.535,0.747-1.047,1.09-1.575l0.111-0.167l0.121-0.238
		c0.08-0.16,0.162-0.322,0.245-0.485c0.135-0.316,0.23-0.612,0.346-0.938c0.068-0.341,0.177-0.681,0.218-1.028
		c0.021-0.174,0.042-0.348,0.063-0.519l0.03-0.235l-0.001-0.263c0.001-0.356-0.04-0.626-0.09-0.954
		c-0.05-0.316-0.097-0.615-0.14-0.892c-0.096-0.558-0.068-1.043-0.031-1.367c0.084-0.316,0.132-0.498,0.132-0.498
		s-0.017,0.184-0.047,0.504c0.02,0.322,0.068,0.771,0.251,1.292c0.089,0.263,0.185,0.548,0.286,0.85
		c0.099,0.29,0.216,0.676,0.27,1.012l0.045,0.26l0.018,0.296c0.009,0.186,0.018,0.375,0.026,0.564
		c0.02,0.381-0.032,0.771-0.048,1.165c-0.062,0.391-0.134,0.82-0.228,1.194c-0.054,0.175-0.107,0.348-0.16,0.52l-0.079,0.255
		c-0.06,0.166-0.082,0.197-0.125,0.302c-0.307,0.699-0.625,1.256-0.802,1.713c-0.096,0.228-0.146,0.425-0.186,0.593
		c-0.035,0.164-0.02,0.242-0.046,0.332c0.012,0.325,0.018,0.51,0.018,0.51L205.25,74.046z"/>
</g>
<g>
	<path fill="#AFAFAF" d="M132.848,65.837c0,0-0.031-0.183-0.086-0.503c-0.015-0.229-0.046-0.551-0.019-0.834
		c0.026-0.28,0.072-0.583,0.153-0.885c0.151-0.608,0.4-1.223,0.571-1.83l0.057-0.191l0.044-0.264
		c0.029-0.177,0.059-0.356,0.089-0.536c0.034-0.342,0.037-0.653,0.05-0.999c-0.036-0.346-0.034-0.702-0.1-1.045
		c-0.032-0.173-0.064-0.344-0.096-0.513l-0.042-0.234l-0.079-0.251c-0.105-0.34-0.225-0.586-0.37-0.884
		c-0.142-0.288-0.276-0.559-0.399-0.81c-0.257-0.504-0.376-0.976-0.438-1.296c-0.014-0.327-0.022-0.514-0.022-0.514
		s0.039,0.18,0.106,0.495c0.114,0.302,0.294,0.715,0.625,1.159c0.163,0.225,0.339,0.469,0.526,0.727
		c0.181,0.247,0.408,0.581,0.559,0.886l0.12,0.234l0.105,0.277c0.064,0.175,0.129,0.352,0.195,0.53
		c0.132,0.358,0.2,0.745,0.302,1.126c0.058,0.392,0.117,0.823,0.14,1.208c0,0.183,0.001,0.364,0.002,0.543l0.001,0.267
		c-0.008,0.179-0.02,0.213-0.029,0.326c-0.084,0.758-0.222,1.385-0.254,1.874c-0.023,0.246-0.014,0.45,0,0.621
		c0.016,0.167,0.054,0.236,0.056,0.331c0.108,0.307,0.169,0.482,0.169,0.482L132.848,65.837z"/>
</g>
<g>
	<path fill="#AFAFAF" d="M129.602,74.652c0,0-0.046-0.239-0.126-0.657c-0.03-0.311-0.086-0.764-0.053-1.151
		c0.029-0.384,0.088-0.796,0.196-1.202c0.203-0.817,0.539-1.619,0.754-2.387l0.043-0.146l0.005-0.019
		c-0.014,0.147-0.003,0.038-0.006,0.069l0.001-0.005l0.001-0.011l0.007-0.042l0.014-0.086l0.055-0.345
		c0.037-0.232,0.075-0.467,0.112-0.703c0.006-0.417,0.046-0.823,0.025-1.27c-0.059-0.446-0.045-0.913-0.162-1.354
		c-0.046-0.224-0.091-0.446-0.137-0.666l-0.034-0.166l-0.008-0.041c0.02,0.047-0.002-0.011-0.001-0.011l-0.028-0.083l-0.11-0.327
		c-0.151-0.418-0.314-0.753-0.513-1.136c-0.186-0.369-0.384-0.715-0.542-1.052c-0.17-0.329-0.296-0.65-0.403-0.934
		c-0.105-0.284-0.146-0.552-0.204-0.757c-0.026-0.429-0.041-0.674-0.041-0.674s0.061,0.233,0.166,0.641
		c0.096,0.19,0.179,0.427,0.331,0.674c0.152,0.248,0.326,0.521,0.55,0.803c0.211,0.289,0.469,0.586,0.728,0.921
		c0.254,0.314,0.56,0.727,0.797,1.128l0.171,0.3l0.043,0.076c0.013,0.026,0.002-0.005,0.034,0.068l0.018,0.042l0.071,0.168
		c0.094,0.227,0.19,0.456,0.287,0.687c0.218,0.457,0.311,0.968,0.472,1.464c0.127,0.508,0.192,1.076,0.269,1.608
		c0.008,0.239,0.016,0.477,0.024,0.711l0.012,0.35l0.003,0.087l0.001,0.043l0,0.011v0.005l-0.007,0.08l-0.002,0.024l-0.017,0.19
		c-0.086,1.023-0.259,1.848-0.28,2.468c-0.02,0.311,0.001,0.563,0.028,0.771c0.03,0.202,0.081,0.258,0.085,0.369
		c0.159,0.395,0.25,0.621,0.25,0.621L129.602,74.652z"/>
</g>
<g>
	<path fill="#AFAFAF" d="M135.484,69.103c0,0-0.007-0.143-0.021-0.392c0.002-0.181,0.005-0.484,0.063-0.727
		c0.055-0.248,0.145-0.498,0.265-0.74c0.121-0.234,0.254-0.452,0.385-0.654c0.117-0.181,0.253-0.405,0.308-0.529
		c0.083-0.247,0.205-0.535,0.22-0.73l0.069-0.336l0.019-0.389c0.026-0.262-0.001-0.53-0.018-0.796l-0.013-0.2
		c0.009-0.024-0.019-0.124-0.027-0.182c-0.024-0.136-0.047-0.273-0.082-0.384c-0.118-0.471-0.309-0.96-0.426-1.375
		c-0.133-0.415-0.184-0.783-0.201-1.035c0.02-0.251,0.031-0.396,0.031-0.396s0.02,0.14,0.054,0.384
		c0.071,0.237,0.191,0.56,0.404,0.926c0.202,0.375,0.473,0.769,0.737,1.291c0.073,0.133,0.122,0.257,0.176,0.384
		c0.028,0.074,0.053,0.103,0.083,0.216l0.063,0.211c0.083,0.283,0.177,0.571,0.217,0.879l0.078,0.459l0.013,0.506
		c0.018,0.368-0.038,0.608-0.064,0.881c-0.069,0.395-0.171,0.633-0.26,0.892c-0.088,0.234-0.152,0.432-0.193,0.593
		c-0.035,0.155-0.043,0.282-0.038,0.378c0.008,0.099,0.029,0.1,0.029,0.166c0.067,0.241,0.106,0.378,0.106,0.378L135.484,69.103z"/>
</g>
<g>
	<path fill="#AFAFAF" d="M209.566,76.579c0,0,0.06-0.22,0.164-0.605c0.104-0.282,0.241-0.689,0.425-1.005
		c0.179-0.312,0.392-0.64,0.641-0.941c0.243-0.307,0.52-0.608,0.789-0.892c0.272-0.293,0.552-0.571,0.792-0.859l0.095-0.109
		l0.048-0.055l0.012-0.014c0.032-0.054-0.039,0.069-0.031,0.055l0.003-0.004l0.006-0.008l0.023-0.034l0.185-0.271
		c0.124-0.182,0.249-0.366,0.376-0.552c0.218-0.36,0.371-0.69,0.565-1.06c0.138-0.397,0.322-0.79,0.43-1.201
		c0.053-0.207,0.105-0.412,0.158-0.615c0.024-0.088,0.056-0.234,0.075-0.275l0.042-0.32c0.061-0.438,0.056-0.753,0.049-1.165
		c-0.01-0.394-0.019-0.766-0.027-1.109c-0.027-0.697,0.084-1.289,0.182-1.678c0.152-0.373,0.24-0.586,0.24-0.586
		s-0.041,0.222-0.114,0.611c-0.013,0.396-0.005,0.945,0.159,1.603c0.077,0.332,0.162,0.692,0.251,1.073
		c0.087,0.361,0.186,0.869,0.21,1.282l0.023,0.323l-0.015,0.372c-0.011,0.231-0.021,0.465-0.033,0.7
		c-0.024,0.473-0.131,0.948-0.198,1.434c-0.127,0.478-0.27,1.011-0.432,1.458c-0.086,0.208-0.171,0.414-0.256,0.617l-0.125,0.303
		l-0.016,0.038l-0.004,0.01l-0.039,0.068l-0.011,0.02l-0.043,0.078l-0.087,0.156c-0.227,0.424-0.467,0.786-0.664,1.116
		c-0.207,0.334-0.377,0.624-0.506,0.886c-0.138,0.261-0.215,0.485-0.274,0.674c-0.054,0.184-0.031,0.25-0.069,0.339
		c-0.023,0.399-0.037,0.627-0.037,0.627L209.566,76.579z"/>
</g>
<path fill="#DC787A" d="M158.372,153.096c5.313,0.468,11.087,3.221,16.416,3.014c3.688-0.141,4.197-1.205,7.715-2.034
	c-9.778,8.705-12.945,13.977-17.389,15.176c-3.752,1.011-9.403,0.993-12.617-2.288c-2.354-2.401-5.001-6.331-11.9-12.753
	C141.531,154.533,152.996,152.623,158.372,153.096z"/>
<path fill="none" d="M75.605,101.417c-0.171,0.004-0.336,0.046-0.493,0.124"/>
<path fill="#FFFFFF" d="M167.401,153.332c0.869,0.949,0.127,11.622-0.982,13.025c-2.074,2.624-10.819,1.861-12.924-0.45
	c-1.438-1.578-1.024-8.691-1.146-10.644C152.246,153.586,165.594,151.362,167.401,153.332z"/>
<g opacity="0.8">
	<path d="M159.957,159.036c0,0,0.025,2.202-0.064,4.4c-0.074,2.198-0.265,4.393-0.264,4.393s-0.026-2.202,0.064-4.4
		C159.767,161.23,159.957,159.036,159.957,159.036z"/>
</g>
<path fill="#3E3221" d="M206,217.796c0-0.002,0.142-3.158-1.493-8.179c-0.672-2.064-2.613-5.953-3.921-7.544
	c-7.401-9-20.058-11.137-31.264-11.137c-7.273,0-14.791,0.84-21.703,3.18c-5.582,1.889-11.649,4.458-14.838,9.729
	c-2.134,3.524-3.859,19.846,0.335,24.848c0.666,0.795,1.649-0.748,1.968-1.191c0.232-0.32,0.687-1.372,1.07-1.464
	c0.463-0.109,0.839,0.586,1.368,0.467c0.017-0.6,0.469-0.94,0.644-1.457c0.135-0.402,0.016-1.162,0.425-1.425
	c0.379-0.241,1.63,0.14,2.078,0.185c1.623,0.154,3.252,0.228,4.88,0.314c1.717,0.092,3.317-0.994,5.058-1.055
	c0.813-0.027,1.55,0.297,2.304,0.581c0.556,0.21,1.396,0.866,1.998,0.787c0.609-0.081,0.831-0.993,1.341-1.119
	c0.704-0.177,1.585,0.546,2.375,0.519c1.211-0.039,2.479-0.113,3.675-0.32c1.066-0.186,2.083-0.688,3.173-0.732
	c1-0.037,2.021,0.441,3.017,0.197c1.045-0.254,1.693-1.222,2.74-1.496c1.199-0.316,2.402-0.24,3.62-0.377
	c0.783-0.09,0.766-0.357,1.354-0.836c0.529-0.428,1.354-0.748,2.032-0.773c0.722-0.025,1.719,0.762,2.292,0.681
	c0.691-0.099,1.384-0.188,2.08-0.263c0.368-0.039,0.726-0.016,1.072,0.053c1.046-0.221,2.09-0.445,3.133-0.676
	c0.388-0.084,0.919-0.09,1.279-0.232c0.401-0.158,0.695-0.682,1.167-0.668c0.424,0.012,0.58,0.496,1.104,0.498
	c0.723,0,1.038-0.64,1.588-0.971c0.531-0.318,0.817-0.221,1.403-0.225c1.278-0.01,2.563-0.313,3.855-0.338
	c1.611-0.031,3.131,0.563,4.708,0.43C202.406,217.743,206.011,217.519,206,217.796z"/>
<path fill="#E2E2E2" d="M146.805,138.716c-4.946,1.755-10.494,7.394-8.421,13.124c0.774,2.14,2.475,3.641,4.449,4.68
	c2.453,1.292,7.449,1.909,9.968,1.292c4.854-1.189,6.239-2.626,6.927-2.635c0,0,4.041,2.032,5.65,2.635
	c7.55,2.829,19.926,1.159,18.418-9.438c-0.63-4.444-5.929-7.283-9.666-8.851c-2.628-1.102-5.11-1.868-8.058-1.633
	c-6.008,0.478-8.423,0.473-13.778-0.321C150.582,137.316,148.645,138.063,146.805,138.716z"/>
<g>
	<path fill="#FFFFFF" d="M182.235,109.276c-3.457,0.139-6.355,3.383-8.314,5.737c-2.237,2.687-2.671,6.52-1.626,9.615
		c1.009,2.986,3.244,6.716,6.772,7.512c3.577,0.807,8.57-0.299,10.926-3.123c3.039-3.643,2.901-9.726,1.407-13.785
		C190.118,111.749,186.724,108.424,182.235,109.276z"/>
	<path fill="#979695" d="M182.238,109.291c0,0-0.268,0.042-0.769,0.122c-0.252,0.034-0.563,0.076-0.9,0.227
		c-0.337,0.141-0.754,0.231-1.153,0.491c-0.414,0.228-0.875,0.472-1.32,0.831c-0.473,0.318-0.926,0.736-1.417,1.173
		c-0.941,0.911-1.964,2.009-2.925,3.297c-0.966,1.302-1.598,2.951-1.806,4.785c-0.205,1.831,0.092,3.804,0.922,5.657
		c0.801,1.834,1.94,3.672,3.624,4.976c1.671,1.37,3.995,1.564,6.1,1.4c2.133-0.202,4.256-0.874,5.957-2.111
		c1.725-1.223,2.749-3.159,3.259-5.083c0.502-1.947,0.564-3.924,0.366-5.756c-0.218-1.829-0.627-3.551-1.312-5.006
		c-0.688-1.448-1.651-2.62-2.671-3.436c-1.013-0.835-2.097-1.284-3.01-1.498c-0.919-0.229-1.672-0.187-2.174-0.166
		C182.506,109.257,182.238,109.291,182.238,109.291z M182.233,109.261c0,0,0.268-0.039,0.772-0.111
		c0.504-0.03,1.263-0.085,2.195,0.13c0.927,0.2,2.035,0.636,3.079,1.467c1.052,0.812,2.058,1.974,2.795,3.446
		c0.734,1.469,1.193,3.211,1.394,5.074c0.198,1.862,0.131,3.871-0.386,5.86c-0.53,1.966-1.581,3.969-3.377,5.222
		c-1.772,1.248-3.936,1.89-6.099,2.063c-0.541,0.071-1.088,0.047-1.633,0.026c-0.55,0.014-1.077-0.115-1.611-0.188
		c-0.543-0.072-1.037-0.325-1.554-0.479c-0.46-0.279-0.958-0.507-1.372-0.847c-1.706-1.314-2.888-3.133-3.724-4.989
		c-0.858-1.845-1.194-3.875-1.006-5.744c0.159-1.869,0.876-3.606,1.874-4.885c1.003-1.296,2.041-2.366,3.008-3.271
		c0.502-0.433,0.964-0.846,1.447-1.159c0.454-0.354,0.924-0.594,1.345-0.816c0.405-0.254,0.833-0.342,1.175-0.478
		c0.344-0.146,0.655-0.182,0.908-0.212C181.965,109.299,182.233,109.261,182.233,109.261z"/>
</g>
<g>
	<path fill="#FFFFFF" d="M144.773,107.951c3.415,0.641,5.847,4.223,7.469,6.8c1.853,2.942,1.755,6.733,0.292,9.59
		c-1.414,2.757-4.146,6.056-7.758,6.312c-3.665,0.26-8.471-1.55-10.42-4.64c-2.519-3.988-1.545-9.885,0.497-13.613
		C136.604,109.199,140.431,106.462,144.773,107.951z"/>
	<path fill="#979695" d="M144.777,107.937c0,0,0.258,0.075,0.741,0.216c0.243,0.068,0.545,0.142,0.863,0.333
		c0.316,0.184,0.729,0.321,1.092,0.626c0.783,0.527,1.64,1.303,2.489,2.306c0.839,1.013,1.716,2.203,2.543,3.604
		c0.825,1.379,1.317,3.185,1.224,5.044c-0.063,1.863-0.679,3.815-1.798,5.497c-1.096,1.697-2.536,3.3-4.416,4.318
		c-0.465,0.253-0.98,0.422-1.479,0.607c-0.531,0.071-1.052,0.251-1.597,0.231c-0.535-0.005-1.071,0.039-1.608-0.054
		c-0.539-0.06-1.079-0.115-1.6-0.262c-2.099-0.478-4.134-1.399-5.722-2.848c-1.606-1.455-2.43-3.543-2.685-5.554
		c-0.26-2.024-0.049-4.011,0.405-5.813c0.46-1.802,1.162-3.449,2.106-4.778c0.948-1.333,2.118-2.312,3.276-2.941
		c1.154-0.651,2.311-0.893,3.249-0.951c0.947-0.066,1.683,0.096,2.173,0.201C144.52,107.86,144.777,107.937,144.777,107.937z
		 M144.769,107.965c0,0-0.259-0.071-0.743-0.205c-0.49-0.096-1.223-0.244-2.158-0.162c-0.926,0.073-2.062,0.332-3.186,0.992
		c-1.128,0.639-2.256,1.634-3.151,2.95c-0.893,1.322-1.542,2.956-2.014,4.72c-0.451,1.771-0.662,3.725-0.411,5.704
		c0.241,1.964,1.044,3.98,2.585,5.399c1.519,1.431,3.511,2.376,5.578,2.879c2.046,0.463,4.345,0.614,6.204-0.446
		c1.854-1.012,3.255-2.639,4.313-4.319c1.091-1.693,1.659-3.593,1.702-5.42c0.039-1.831-0.376-3.533-1.17-4.936
		c-0.785-1.388-1.644-2.604-2.457-3.618c-0.827-1.009-1.663-1.792-2.431-2.327c-0.357-0.31-0.759-0.449-1.069-0.637
		c-0.31-0.194-0.612-0.273-0.854-0.346C145.025,108.044,144.769,107.965,144.769,107.965z"/>
</g>
<g>
	<path fill="#979695" d="M179.245,106.796c0,0,0.298-0.169,0.83-0.435c0.259-0.141,0.614-0.251,1.018-0.392
		c0.408-0.154,0.87-0.234,1.387-0.348c0.515-0.063,1.085-0.174,1.687-0.157c0.605-0.026,1.242,0.011,1.898,0.085
		c0.649,0.104,1.328,0.201,1.992,0.396c0.667,0.183,1.334,0.408,1.976,0.688c0.647,0.27,1.27,0.592,1.862,0.938
		c0.6,0.336,1.141,0.744,1.669,1.124c0.517,0.398,0.994,0.809,1.415,1.231c0.449,0.404,0.783,0.823,1.15,1.246
		c0.305,0.396,0.568,0.784,0.789,1.148c0.217,0.346,0.407,0.647,0.563,0.895c0.329,0.464,0.544,0.745,0.544,0.745
		s-0.075-0.04-0.215-0.113c-0.135-0.08-0.368-0.174-0.613-0.352c-0.232-0.177-0.554-0.403-0.848-0.663
		c-0.312-0.257-0.664-0.548-1.048-0.865c-0.371-0.248-0.811-0.589-1.268-0.885c-0.453-0.318-0.962-0.604-1.461-0.931
		c-0.516-0.305-1.062-0.592-1.615-0.881c-0.559-0.277-1.123-0.566-1.709-0.798c-0.574-0.263-1.17-0.469-1.754-0.673
		c-0.587-0.198-1.169-0.374-1.744-0.522c-0.578-0.109-1.134-0.262-1.674-0.33c-0.539-0.099-1.053-0.123-1.535-0.186
		c-0.475,0.001-0.934-0.064-1.32-0.044c-0.391,0.022-0.744-0.017-1.041,0.023C179.588,106.788,179.245,106.796,179.245,106.796z"/>
</g>
<g>
	<path fill="#979695" d="M145.543,105.287c0,0-0.331,0.021-0.905,0.024c-0.288-0.008-0.625,0.054-1,0.066
		c-0.375,0.024-0.808,0.111-1.264,0.157c-0.458,0.098-0.948,0.174-1.458,0.309c-0.513,0.108-1.037,0.3-1.583,0.455
		c-0.269,0.095-0.542,0.191-0.818,0.289c-0.271,0.115-0.544,0.232-0.824,0.337c-0.547,0.242-1.107,0.48-1.646,0.768
		c-0.55,0.263-1.081,0.569-1.603,0.87c-0.52,0.307-1.031,0.613-1.516,0.93c-0.468,0.337-0.946,0.637-1.373,0.959
		c-0.429,0.306-0.844,0.645-1.194,0.901c-0.363,0.315-0.695,0.604-0.99,0.859c-0.28,0.258-0.584,0.483-0.804,0.659
		c-0.233,0.176-0.453,0.276-0.581,0.357c-0.133,0.076-0.205,0.116-0.205,0.116s0.18-0.27,0.494-0.743
		c0.142-0.245,0.314-0.542,0.512-0.883c0.201-0.358,0.44-0.744,0.722-1.135c0.332-0.422,0.642-0.837,1.054-1.247
		c0.389-0.423,0.826-0.843,1.304-1.249c0.49-0.39,0.986-0.814,1.546-1.168c0.547-0.371,1.13-0.71,1.734-1.012
		c0.601-0.306,1.226-0.566,1.853-0.791c0.627-0.228,1.268-0.379,1.889-0.516c0.624-0.125,1.234-0.208,1.818-0.229
		c0.579-0.058,1.135-0.004,1.637,0.021c1.003,0.102,1.841,0.33,2.374,0.532C145.245,105.143,145.543,105.287,145.543,105.287z"/>
</g>
<ellipse fill="#3EB5F1" cx="143.59" cy="122.023" rx="8.723" ry="8.621"/>
<ellipse fill="#3EB5F1" cx="181.649" cy="123.576" rx="8.924" ry="8.821"/>
<ellipse cx="143.38" cy="123.016" rx="5.716" ry="5.65"/>
<ellipse cx="181.785" cy="124.809" rx="5.716" ry="5.65"/>
<ellipse fill="#FFFFFF" cx="140.596" cy="119.106" rx="2.219" ry="2.2"/>
<ellipse fill="#FFFFFF" cx="179.523" cy="120.364" rx="2.261" ry="2.244"/>
<g>
	<path d="M156.477,147.031c-1.691,0.287-2.103,1.305-2.129,1.379c-0.285,0.842-0.099,2.122,0.49,2.789
		c0.339,0.384,0.737,0.71,1.173,0.979c0.608,0.375,1.319,0.689,1.873,1.168c0.486,0.419,0.587,1.017,1.501,1.119
		c1.124,0.125,1.389-0.498,1.941-0.904c0.676-0.498,1.015-0.544,1.744-0.848c0.941-0.39,1.942-1.01,2.32-2.004
		c0.37-0.981-0.119-2.376-1.018-2.955c-0.686-0.441-1.65-0.555-2.444-0.693C160.128,146.749,158.28,146.726,156.477,147.031z"/>
</g>
<ellipse fill="#FFFFFF" cx="156.78" cy="149.556" rx="0.87" ry="0.569"/>
<g>
	<path d="M176.069,148.276c0,0,0.685-0.615,1.977-1.576c0.662-0.457,1.439-1.053,2.395-1.639c0.934-0.621,2.026-1.259,3.229-1.937
		c0.591-0.357,1.243-0.663,1.903-1.005c0.668-0.326,1.336-0.712,2.065-1.018c1.446-0.638,2.958-1.346,4.587-1.917
		c0.811-0.292,1.618-0.641,2.468-0.898c0.848-0.263,1.707-0.528,2.572-0.796c0.86-0.289,1.746-0.509,2.639-0.714
		c0.891-0.215,1.786-0.431,2.68-0.646c1.804-0.36,3.626-0.629,5.411-0.94c1.803-0.178,3.576-0.354,5.293-0.523
		c1.724-0.05,3.391-0.099,4.971-0.146c0.791-0.045,1.559,0.004,2.302,0.037c0.743,0.032,1.461,0.063,2.15,0.094
		c1.378,0.069,2.645,0.078,3.755,0.247c1.113,0.129,2.084,0.242,2.884,0.335c1.599,0.186,2.512,0.292,2.512,0.292
		s-0.914-0.103-2.513-0.283c-0.8-0.09-1.771-0.2-2.885-0.325c-1.11-0.165-2.377-0.17-3.755-0.234
		c-0.688-0.028-1.406-0.057-2.149-0.086c-0.742-0.03-1.511-0.077-2.3-0.029c-1.579,0.052-3.245,0.106-4.968,0.163
		c-1.714,0.175-3.485,0.356-5.286,0.541c-1.781,0.316-3.6,0.592-5.401,0.956c-0.894,0.212-1.788,0.425-2.679,0.637
		c-0.893,0.202-1.779,0.419-2.638,0.705c-0.865,0.264-1.724,0.527-2.572,0.786c-0.85,0.255-1.657,0.601-2.469,0.889
		c-1.63,0.564-3.142,1.267-4.59,1.9c-0.73,0.304-1.398,0.688-2.068,1.011c-0.661,0.34-1.313,0.642-1.905,0.998
		c-1.205,0.672-2.298,1.307-3.233,1.925c-0.958,0.583-1.737,1.175-2.4,1.63C176.756,147.663,176.069,148.276,176.069,148.276z"/>
</g>
<g>
	<path d="M175.865,152.837c0,0,1.002-0.339,2.798-0.782c0.905-0.189,1.996-0.462,3.268-0.665c1.265-0.248,2.708-0.425,4.279-0.629
		c0.786-0.106,1.611-0.148,2.462-0.229c0.852-0.072,1.731-0.161,2.64-0.176c0.908-0.033,1.84-0.067,2.793-0.102
		c0.954-0.023,1.928,0.017,2.919,0.023c1.984-0.02,4.025,0.173,6.102,0.303c2.076,0.151,4.167,0.485,6.268,0.72
		c2.078,0.385,4.163,0.747,6.2,1.165c2.02,0.503,4.007,0.998,5.93,1.477c1.892,0.591,3.72,1.163,5.454,1.705
		c1.73,0.55,3.311,1.232,4.8,1.776c1.479,0.569,2.85,1.056,4.008,1.624c1.172,0.533,2.194,0.997,3.036,1.38
		c1.684,0.765,2.646,1.202,2.646,1.202s-0.963-0.435-2.649-1.194c-0.843-0.38-1.866-0.841-3.04-1.371
		c-1.159-0.564-2.531-1.047-4.012-1.611c-1.49-0.539-3.071-1.217-4.803-1.761c-1.735-0.536-3.564-1.102-5.456-1.687
		c-1.924-0.473-3.911-0.962-5.931-1.458c-2.037-0.412-4.12-0.767-6.197-1.146c-2.099-0.241-4.187-0.582-6.26-0.738
		c-2.075-0.136-4.114-0.334-6.096-0.321c-0.99-0.009-1.964-0.052-2.917-0.032c-0.953,0.032-1.885,0.063-2.792,0.094
		c-0.908,0.012-1.788,0.099-2.639,0.168c-0.851,0.079-1.676,0.118-2.461,0.222c-1.572,0.2-3.015,0.373-4.28,0.617
		c-1.273,0.198-2.364,0.468-3.27,0.655C176.868,152.501,175.865,152.837,175.865,152.837z"/>
</g>
<g>
	<path d="M144.583,147.492c0,0-0.687-0.613-1.982-1.569c-0.664-0.455-1.442-1.047-2.4-1.63c-0.936-0.618-2.029-1.252-3.233-1.925
		c-0.592-0.355-1.244-0.658-1.905-0.998c-0.669-0.323-1.337-0.707-2.067-1.011c-1.448-0.633-2.96-1.335-4.59-1.9
		c-0.812-0.289-1.619-0.634-2.469-0.889c-0.848-0.259-1.707-0.522-2.572-0.786c-0.859-0.286-1.745-0.502-2.639-0.705
		c-0.891-0.211-1.785-0.424-2.679-0.637c-1.8-0.364-3.62-0.64-5.401-0.956c-1.8-0.185-3.572-0.366-5.287-0.541
		c-1.723-0.057-3.388-0.111-4.967-0.163c-0.79-0.048-1.558-0.001-2.3,0.029c-0.743,0.03-1.46,0.059-2.15,0.086
		c-1.377,0.064-2.644,0.069-3.755,0.234c-1.113,0.125-2.084,0.235-2.884,0.325c-1.599,0.18-2.513,0.283-2.513,0.283
		s0.914-0.106,2.512-0.292c0.799-0.093,1.77-0.206,2.883-0.335c1.11-0.169,2.377-0.178,3.755-0.247
		c0.689-0.03,1.407-0.062,2.15-0.094c0.743-0.033,1.511-0.082,2.302-0.037c1.581,0.046,3.247,0.095,4.971,0.146
		c1.717,0.17,3.491,0.345,5.293,0.523c1.784,0.311,3.606,0.58,5.41,0.94c0.895,0.215,1.79,0.431,2.681,0.646
		c0.894,0.206,1.779,0.425,2.639,0.714c0.865,0.268,1.724,0.533,2.572,0.796c0.849,0.258,1.656,0.607,2.468,0.898
		c1.63,0.571,3.141,1.279,4.588,1.917c0.729,0.306,1.397,0.693,2.065,1.018c0.66,0.343,1.312,0.647,1.902,1.005
		c1.203,0.677,2.294,1.315,3.229,1.937c0.956,0.586,1.734,1.182,2.396,1.639C143.897,146.877,144.583,147.492,144.583,147.492z"/>
</g>
<g>
	<path d="M144.787,152.053c0,0-1.003-0.336-2.8-0.773c-0.906-0.187-1.997-0.457-3.27-0.654c-1.265-0.244-2.708-0.417-4.28-0.617
		c-0.786-0.104-1.611-0.143-2.461-0.222c-0.852-0.069-1.73-0.156-2.639-0.168c-0.907-0.031-1.839-0.062-2.792-0.094
		c-0.953-0.02-1.927,0.023-2.917,0.032c-1.982-0.014-4.021,0.185-6.096,0.321c-2.073,0.157-4.162,0.497-6.259,0.738
		c-2.078,0.379-4.161,0.734-6.199,1.146c-2.019,0.497-4.006,0.985-5.93,1.458c-1.892,0.585-3.721,1.151-5.456,1.688
		c-1.732,0.544-3.313,1.222-4.803,1.761c-1.481,0.564-2.853,1.047-4.012,1.611c-1.174,0.529-2.197,0.991-3.04,1.371
		c-1.686,0.76-2.649,1.194-2.649,1.194s0.962-0.437,2.646-1.202c0.842-0.383,1.864-0.847,3.036-1.38
		c1.158-0.568,2.529-1.055,4.008-1.624c1.488-0.543,3.069-1.226,4.8-1.776c1.734-0.542,3.563-1.113,5.454-1.704
		c1.923-0.479,3.911-0.974,5.93-1.477c2.038-0.418,4.122-0.78,6.201-1.165c2.101-0.236,4.192-0.57,6.267-0.721
		c2.077-0.13,4.118-0.323,6.102-0.303c0.991-0.006,1.965-0.046,2.918-0.023c0.953,0.035,1.886,0.069,2.793,0.102
		c0.909,0.016,1.788,0.104,2.64,0.176c0.851,0.081,1.676,0.123,2.462,0.229c1.572,0.205,3.015,0.382,4.279,0.63
		c1.272,0.202,2.363,0.475,3.268,0.664C143.785,151.714,144.787,152.053,144.787,152.053z"/>
</g>
</svg>
