<?xml version="1.0" encoding="utf-8"?>
<!-- Generator: Adobe Illustrator 16.0.0, SVG Export Plug-In . SVG Version: 6.00 Build 0)  -->
<!DOCTYPE svg PUBLIC "-//W3C//DTD SVG 1.1//EN" "http://www.w3.org/Graphics/SVG/1.1/DTD/svg11.dtd">
<svg version="1.1" id="Слой_4" xmlns="http://www.w3.org/2000/svg" xmlns:xlink="http://www.w3.org/1999/xlink" x="0px" y="0px"
	 width="595.281px" height="841.891px" viewBox="0 0 595.281 841.891" enable-background="new 0 0 595.281 841.891"
	 xml:space="preserve">
<g id="picShroom" opacity="0.5">
	<path fill="#FF3333" d="M382.537,577.992c-3.75,0.283-7.502,0.352-11.244,0.17c-35.871-1.721-76.014-9.73-112.532-14.332
		c-24.114-3.041-48.281,0.807-72.365,2.197c-12.955,0.748-26.116,1.908-39.012-0.18c-13.679-2.209-24.92-9.039-37.733-13.764
		c-14.268-5.26-27.676-12.705-41.592-18.662c-24.46-10.473-40.944-24.465-41.005-51.93c-0.029-13.566-0.944-25.65,3.263-38.879
		c4.267-13.42,11.463-25.784,19.652-37.194c16.156-22.519,36.544-41.511,56.292-60.836c31.307-30.637,67.493-56.393,96.63-89.224
		c27.785-31.31,46.228-71.822,95.337-60.568c44.826,10.272,73.703,48.042,97.061,82.903c21.266,31.736,51.508,53.511,74.854,83.19
		c23.947,30.449,48.396,66.14,58.512,102.083c11.893,42.273-12.686,61.824-49.867,79.146
		C449.539,555.742,416.049,575.459,382.537,577.992z"/>
	<path fill="#FF3333" d="M223.083,628.774c3.903-0.313,7.873-0.244,12.071,0.473c5.654,0.967,7.417-0.357,12.875-0.766
		c5.922-0.447,8.211,3.654,13.111,5.078c3.157,0.918,9.322,0.846,12.628,0.32c2.621-0.418,3.417-2.668,6.493-2.285
		c2.109,0.262,2.525,3.492,5.282,3.371c2.857-0.125,3.713-4.088,6.453-4.67c2.23-0.473,3.689,1.229,5.725,1.338
		c2.785,0.15,5.377-1.947,8.098-2.434c2.926-0.521,6.348-0.703,9.326-0.781c9.859-0.264,15.477,4.857,25.592-1.107
		c1.818-1.074,5.826-5.418,8.041-5.02c-4.246-0.766-8.717-4.139-11.531-7.691c-1.477-1.863-1.043-3.848-3.146-5.555
		c-2.479-2.012-4.432-1.07-6.988-2.625c-5.996-3.645-5.939-7.328-6.383-12.275c-0.244-2.717-0.689-5.691-1.475-8.311
		c-0.537-1.793-2.291-5.078-2.449-5.699c-1.467-5.701-0.867-12.389-0.633-18.422c0.201-5.205,2.084-12.848,0.125-17.684
		c-2.732-6.74-13.924-14.682-21.184-14.816c-7.008-0.131-14.54,2.967-21.952,3.008c-13.242,0.072-31.073-0.957-35.944,14.533
		c-3.972,12.639,2.958,26.828-1.479,39.064c-3.782,10.428-16.261,13.828-20.992,23.313c-2.036,4.08-1.778,9.104-3.732,13.363
		c-1.027,2.242-6.146,8.178-9.461,5.418C206.6,632.115,217.261,629.237,223.083,628.774z"/>
	<path fill="#FF3333" d="M252.997,596.18c-0.324,2.135-0.723,4.25-1.204,6.35c-2.184,9.531-4.604,19.047-5.896,28.754
		c-1.22,9.154,0.056,19.33-3.461,28.027c-3.152,7.789-8.453,7.762-16.089,7.82c-8.104,0.064-16.146,2.705-22.528,7.688
		c-2.784,2.176-4.779,5.617-7.777,7.445c-3.791,2.313-8.265,4.24-12.654,5.033c-3.507,0.633-12.4-1.732-15.158,0.203
		c-1.278,0.896-4.687,13.48-3.118,13.811c2.445,0.514,5.078-1.436,7.402-2.064c12.169-3.289,24.6-5.479,37.043-7.459
		c18.965-3.014,38.177-3.932,57.356-4.281c19.403-0.354,38.882-1.229,58.276-0.209c15.313,0.807,30.344,3.943,45.439,6.395
		c3.891,0.631,42.176,3.838,42,2.828c-1.723-9.9-13.311-5.719-19.133-8.365c-9.318-4.238-13.463-11.99-24.477-13.76
		c-3.064-0.49-4.629-1.246-7.543-2.721c-2.789-1.412-5.646-2.014-8.191-3.818c-5.484-3.896-12.229-6.291-18.73-7.885
		c-6.492-1.59-11.342-1.164-17.873-1.184c-2.807-0.008-9.438,0.895-11.729-0.365c-4.125-2.268-2.07-9.695-2.07-14.014
		c0-19.113,0.902-38.207,1.137-57.318c0.07-6.027-0.357-12.049-0.412-18.074c-0.055-6.092,0.469-10.275,1.945-16.205
		c1.34-5.393,3.443-6.943,1.285-12.66c-1.309-3.461-2.916-7.568-5.52-10.307c-6.506-6.844-15.951-0.822-23.768-3.238
		c-4.657-1.438-7.273-5.688-12.748-4.707c-3.16,0.564-6.096,1.936-8.382,4.195c-3.695,3.65-8.666,9.027-10.169,14.125
		c-1.417,4.811,1.08,9.115,2.739,13.531C254.053,567.215,255.14,581.99,252.997,596.18z"/>
	<ellipse fill="#ffffff" cx="263.255" cy="569.492" rx="9.441" ry="9.375"/>
	<ellipse fill="#000000" cx="263.256" cy="569.492" rx="2.597" ry="2.578"/>
	<ellipse fill="#ffffff" cx="291.414" cy="569.492" rx="9.441" ry="9.375"/>
	<ellipse fill="#000000" cx="291.414" cy="569.491" rx="2.578" ry="2.56"/>
	<path fill="#ffffff" d="M282.613,563.174c0.191,0.809,4.256-1.008,9.504-2.248c5.25-1.234,9.699-1.428,9.506-2.236
		c-0.195-0.813-4.607-0.469-9.857,0.771C286.516,560.699,282.416,562.36,282.613,563.174z"/>
	<path fill="#ffffff" d="M272.531,563.932c-0.262,0.789-4.153-1.365-9.275-3.049c-5.124-1.678-9.541-2.246-9.278-3.037
		c0.264-0.793,4.63-0.072,9.754,1.605C268.854,561.133,272.795,563.135,272.531,563.932z"/>
	<path fill="#ffffff" d="M290.775,592.793c-2.236-3.383-5.984-3.654-10.282-3.219c-2.224,0.225-3.751,0.621-5.986,0.754
		c-2.11,0.127-4.918-0.525-6.835,0.518c-2.464,1.33-5.735,9.568-5.735,9.568s8.692-2.762,15.763-3.096
		c11.313-0.539,16.601,2.242,16.601,2.242S292.227,594.998,290.775,592.793z"/>
</g>
</svg>
