<?xml version="1.0" encoding="utf-8"?>
<!-- Generator: Adobe Illustrator 16.0.0, SVG Export Plug-In . SVG Version: 6.00 Build 0)  -->
<!DOCTYPE svg PUBLIC "-//W3C//DTD SVG 1.1//EN" "http://www.w3.org/Graphics/SVG/1.1/DTD/svg11.dtd">
<svg version="1.1" id="Слой_1" xmlns="http://www.w3.org/2000/svg" xmlns:xlink="http://www.w3.org/1999/xlink" x="0px" y="0px"
	 width="595.281px" height="841.891px" viewBox="0 0 595.281 841.891" enable-background="new 0 0 595.281 841.891"
	 xml:space="preserve">
<g id="sing">
	<g>
		<path fill="#FFFFFF" d="M512.626,55.971l4.084-15.002h-3.857c-0.906-0.451-2.496-2.703-4.311-2.93
			c-1.816-0.225-14.422-0.654-15.885,0c-2.346,1.053-2.264,3.606-1.582,4.508c0,0-2.578-0.376-3.334,2.102
			c-0.49,1.607-0.15,3.079-0.15,3.079s-1.902,0.766-2.135,2.403c-0.361,2.554,1.074,3.455,1.074,3.455s-1.227,1.472-1.061,2.385
			c0.684,3.699,4.01,3.473,4.01,3.473h9.152c0,0-0.104,7.28,0,7.661c1.211,4.43,4.916,6.834,6.051,5.857
			c0.824-0.708,0.672-3.55,0.672-4.28C505.354,61.548,512.626,55.971,512.626,55.971z"/>
		<polygon fill="#FFFFFF" points="513.306,58.692 525.483,58.692 531.081,38.79 518.374,38.79 		"/>
		<polygon fill="#FFFFFF" points="491.901,60.045 495.606,60.045 494.548,64.176 490.993,64.176 		"/>
		<path fill="#FFFFFF" d="M495.29,64.852c0-0.001,1.92,0.604,1.072,3.566c-1.512,5.295-2.967,14.318-3.063,15.584
			c-0.064,0.854-1.16,2.948-1.715,0.975c-0.592-2.104,1.135-12.052,1.186-12.991c0.043-0.815-0.342-1.503-0.869-0.452
			c-0.529,1.052-1.645,11.825-1.854,12.469c-0.209,0.641-1.098,2.178-1.627,0.149c-0.529-2.027,1.311-12.144,1.285-12.955
			c-0.023-0.789-0.643-1.427-1.096,0.226s-1.584,10.117-1.816,11.527c-0.303,1.84-1.49,1.709-1.854-0.45
			c-0.453-2.704,1.59-14.907,3.217-16.937C488.997,64.517,489.165,64.776,495.29,64.852z"/>
		<polygon fill="#FFFFFF" points="500.032,37.241 502.974,27.297 497.116,27.327 495.606,37.241 		"/>
	</g>
	
		<ellipse fill="none" stroke="#FF3333" stroke-width="7" stroke-miterlimit="10" cx="504.696" cy="55.276" rx="38.818" ry="38.544"/>
</g>
</svg>
