<?xml version="1.0" encoding="utf-8"?>
<!-- Generator: Adobe Illustrator 16.0.0, SVG Export Plug-In . SVG Version: 6.00 Build 0)  -->
<!DOCTYPE svg PUBLIC "-//W3C//DTD SVG 1.1//EN" "http://www.w3.org/Graphics/SVG/1.1/DTD/svg11.dtd">
<svg version="1.1" id="Слой_1" xmlns="http://www.w3.org/2000/svg" xmlns:xlink="http://www.w3.org/1999/xlink" x="0px" y="0px"
	 width="595.281px" height="841.891px" viewBox="0 0 595.281 841.891" enable-background="new 0 0 595.281 841.891"
	 xml:space="preserve">
<g id="Слой_1_1_">
	<rect x="16.497" y="0" fill="#FFFFFF" width="562.286" height="841.891"/>
	<rect x="16.497" y="0.883" opacity="0.9" fill="#890000" enable-background="new    " width="562.286" height="103.99"/>
	<g id="sing">
		<g>
			<path fill="#FFFFFF" d="M532.886,55.771l4.084-15.002h-3.856c-0.906-0.451-2.496-2.703-4.312-2.93
				c-1.815-0.226-14.422-0.654-15.885,0c-2.346,1.053-2.264,3.605-1.582,4.508c0,0-2.578-0.376-3.334,2.102
				c-0.49,1.607-0.15,3.079-0.15,3.079s-1.901,0.767-2.135,2.403c-0.361,2.554,1.074,3.455,1.074,3.455s-1.227,1.472-1.062,2.385
				c0.685,3.699,4.011,3.474,4.011,3.474h9.151c0,0-0.104,7.279,0,7.66c1.211,4.431,4.916,6.834,6.052,5.857
				c0.823-0.708,0.672-3.55,0.672-4.28C525.615,61.347,532.886,55.771,532.886,55.771z"/>
			<polygon fill="#FFFFFF" points="533.566,58.492 545.744,58.492 551.341,38.59 538.634,38.59 			"/>
			<polygon fill="#FFFFFF" points="512.162,59.844 515.867,59.844 514.808,63.975 511.253,63.975 			"/>
			<path fill="#FFFFFF" d="M515.55,64.652c0-0.001,1.92,0.604,1.072,3.566c-1.512,5.295-2.967,14.318-3.063,15.584
				c-0.063,0.854-1.159,2.948-1.715,0.975c-0.592-2.104,1.136-12.052,1.187-12.99c0.043-0.815-0.342-1.503-0.869-0.452
				c-0.529,1.052-1.646,11.825-1.854,12.469c-0.209,0.641-1.098,2.178-1.627,0.149c-0.528-2.027,1.312-12.145,1.285-12.955
				c-0.022-0.789-0.643-1.428-1.096,0.226s-1.584,10.117-1.816,11.527c-0.303,1.84-1.489,1.709-1.854-0.45
				c-0.453-2.704,1.59-14.907,3.217-16.938C509.257,64.317,509.425,64.576,515.55,64.652z"/>
			<polygon fill="#FFFFFF" points="520.292,37.041 523.234,27.096 517.376,27.127 515.867,37.041 			"/>
		</g>
		
			<ellipse fill="none" stroke="#FF3333" stroke-width="7" stroke-miterlimit="10" cx="524.957" cy="55.076" rx="38.818" ry="38.544"/>
	</g>
	<path id="arrowLeft" d="M100.47,810.054L81.355,795.17c0,0-0.75,22.851-22.678,20.368c-8.798-0.994-3.248-11.229-3.91-10.603
		c-3.487,3.292-11.188,7.537-21.054,6.921c-3.213-0.201,5.896,1.288,14.212,17.928c0.503,1.01,0.925-7.707,7.962-5.447
		C58.514,825.18,93.394,830.589,100.47,810.054z"/>
	<g id="picShroom" opacity="0.5">
		<path fill="#FFE1E1" d="M402.265,578.098c-3.75,0.284-7.502,0.353-11.243,0.171c-35.871-1.721-76.015-9.73-112.531-14.333
			c-24.114-3.041-48.281,0.807-72.365,2.198c-12.955,0.748-26.116,1.908-39.012-0.181c-13.679-2.21-24.92-9.038-37.733-13.764
			c-14.268-5.261-27.676-12.705-41.592-18.663c-24.46-10.472-40.944-24.465-41.005-51.93c-0.029-13.565-0.944-25.649,3.263-38.879
			c4.267-13.419,11.463-25.783,19.652-37.193c16.156-22.519,36.544-41.511,56.292-60.836c31.307-30.637,67.493-56.393,96.63-89.224
			c27.785-31.311,46.228-71.822,95.337-60.568c44.826,10.272,73.703,48.042,97.061,82.903c21.267,31.736,51.509,53.511,74.854,83.19
			c23.947,30.448,48.396,66.14,58.512,102.083c11.894,42.272-12.686,61.824-49.867,79.146
			C469.267,555.849,435.777,575.565,402.265,578.098z"/>
		<path fill="#FFE1E1" d="M242.812,628.88c3.903-0.313,7.873-0.244,12.071,0.474c5.654,0.967,7.417-0.358,12.875-0.767
			c5.922-0.446,8.211,3.653,13.111,5.078c3.157,0.918,9.322,0.847,12.628,0.319c2.621-0.417,3.417-2.667,6.493-2.285
			c2.108,0.264,2.524,3.493,5.28,3.372c2.857-0.125,3.714-4.089,6.453-4.671c2.23-0.472,3.689,1.229,5.726,1.339
			c2.785,0.15,5.377-1.947,8.098-2.435c2.926-0.521,6.348-0.702,9.326-0.781c9.859-0.264,15.477,4.857,25.592-1.106
			c1.818-1.073,5.826-5.419,8.041-5.021c-4.246-0.765-8.717-4.139-11.531-7.691c-1.477-1.861-1.043-3.847-3.146-5.555
			c-2.479-2.012-4.432-1.07-6.988-2.624c-5.996-3.645-5.938-7.329-6.383-12.275c-0.244-2.717-0.689-5.691-1.475-8.312
			c-0.537-1.792-2.291-5.077-2.449-5.699c-1.467-5.701-0.867-12.389-0.633-18.422c0.2-5.204,2.084-12.848,0.125-17.684
			c-2.732-6.74-13.925-14.682-21.185-14.815c-7.008-0.131-14.539,2.967-21.952,3.007c-13.242,0.072-31.073-0.956-35.944,14.534
			c-3.972,12.639,2.958,26.827-1.479,39.064c-3.782,10.427-16.261,13.826-20.992,23.312c-2.036,4.081-1.778,9.104-3.732,13.363
			c-1.027,2.242-6.146,8.179-9.461,5.418C226.329,632.221,236.99,629.344,242.812,628.88z"/>
		<path fill="#FFE1E1" d="M272.726,596.285c-0.324,2.136-0.723,4.25-1.204,6.351c-2.184,9.531-4.604,19.047-5.896,28.754
			c-1.22,9.155,0.056,19.33-3.461,28.028c-3.152,7.788-8.453,7.761-16.089,7.819c-8.104,0.063-16.146,2.705-22.528,7.688
			c-2.784,2.175-4.779,5.616-7.777,7.444c-3.791,2.313-8.265,4.24-12.654,5.033c-3.507,0.633-12.4-1.731-15.158,0.202
			c-1.278,0.897-4.687,13.48-3.118,13.812c2.445,0.514,5.078-1.437,7.402-2.063c12.169-3.29,24.6-5.479,37.043-7.46
			c18.965-3.014,38.177-3.932,57.356-4.281c19.403-0.354,38.881-1.228,58.276-0.208c15.313,0.807,30.344,3.943,45.439,6.395
			c3.891,0.631,42.176,3.839,42,2.829c-1.724-9.9-13.312-5.721-19.134-8.365c-9.317-4.239-13.463-11.991-24.477-13.76
			c-3.064-0.491-4.629-1.247-7.543-2.723c-2.789-1.411-5.646-2.013-8.191-3.817c-5.483-3.896-12.229-6.291-18.729-7.886
			c-6.492-1.59-11.342-1.163-17.873-1.183c-2.808-0.008-9.438,0.896-11.729-0.366c-4.125-2.267-2.069-9.695-2.069-14.013
			c0-19.113,0.901-38.208,1.137-57.318c0.07-6.026-0.357-12.049-0.412-18.073c-0.055-6.094,0.469-10.276,1.945-16.205
			c1.34-5.395,3.442-6.944,1.285-12.66c-1.31-3.461-2.916-7.569-5.521-10.308c-6.506-6.845-15.951-0.822-23.768-3.237
			c-4.657-1.438-7.273-5.688-12.748-4.707c-3.16,0.563-6.096,1.936-8.382,4.194c-3.695,3.65-8.666,9.026-10.169,14.125
			c-1.417,4.811,1.08,9.114,2.739,13.531C273.782,567.322,274.869,582.097,272.726,596.285z"/>
		<ellipse fill="#FBF8F3" cx="282.983" cy="569.598" rx="9.441" ry="9.375"/>
		<ellipse fill="#0D0F0F" cx="282.984" cy="569.598" rx="2.597" ry="2.578"/>
		<ellipse fill="#FBF8F3" cx="311.142" cy="569.598" rx="9.441" ry="9.375"/>
		<ellipse fill="#0D0F0F" cx="311.142" cy="569.597" rx="2.578" ry="2.559"/>
		<path fill="#FCF9F4" d="M302.341,563.28c0.191,0.81,4.256-1.007,9.504-2.247c5.25-1.233,9.699-1.428,9.506-2.235
			c-0.194-0.813-4.606-0.47-9.856,0.771S302.144,562.467,302.341,563.28z"/>
		<path fill="#FCF9F4" d="M292.26,564.037c-0.262,0.789-4.153-1.363-9.275-3.049c-5.124-1.677-9.541-2.245-9.278-3.037
			c0.264-0.793,4.63-0.071,9.754,1.606C288.583,561.24,292.523,563.241,292.26,564.037z"/>
		<path fill="#FCF9F4" d="M310.503,592.9c-2.236-3.383-5.984-3.655-10.281-3.219c-2.224,0.224-3.75,0.62-5.986,0.754
			c-2.11,0.126-4.918-0.525-6.835,0.517c-2.464,1.33-5.735,9.568-5.735,9.568s8.692-2.762,15.763-3.096
			c11.313-0.538,16.6,2.243,16.6,2.243S311.955,595.104,310.503,592.9z"/>
	</g>
</g>
<g id="Слой_2">
	<g>
		<path fill="#FFE1E1" d="M563.858,818.424c0,3.223-2.611,5.832-5.832,5.832h-51.654c-3.222,0-5.832-2.611-5.832-5.832v-13.782
			c0-3.222,2.611-5.831,5.832-5.831h51.654c3.221,0,5.83,2.611,5.83,5.831v13.782H563.858z"/>
		<g>
			<path fill="#706F6F" d="M537.45,819.329l-3.633-4.997l-3.631,4.997h-3.992l5.383-7.263l-5.048-6.902h3.993l3.295,4.636
				l3.273-4.636h4.016l-5.047,6.877l5.383,7.288H537.45L537.45,819.329z"/>
		</g>
	</g>
</g>
</svg>
