<?xml version="1.0" encoding="utf-8"?>
<!-- Generator: Adobe Illustrator 16.0.0, SVG Export Plug-In . SVG Version: 6.00 Build 0)  -->
<!DOCTYPE svg PUBLIC "-//W3C//DTD SVG 1.1//EN" "http://www.w3.org/Graphics/SVG/1.1/DTD/svg11.dtd">


<svg version="1.1" xmlns="http://www.w3.org/2000/svg" xmlns:xlink="http://www.w3.org/1999/xlink" x="0px" y="0px" width="1760px"
	 height="763px" viewBox="0 0 3760 2263" enable-background="new 0 0 3760 2263" xml:space="preserve">
<link href='http://fonts.googleapis.com/css?family=Istok+Web:400,700,400italic,700italic' rel='stylesheet' type='text/css'>
<style type="text/css" media="screen">
    <![CDATA[
    	#arrow {
        	fill: #0ff;
        	-webkit-transition: all 350ms;
		}
		#addInfo{font-size:40px;}
    ]]>
</style>
<g id="badShroom">
	<g id="backSide">
		<rect x="322.282" y="207.206" fill="#FFFFFF" stroke="none"  width="1230" height="1854.739"/>
		<rect x="322.282" y="209.151"  fill="#890000" width="1230" height="229.098"/>
		<g id="sing">
			<path fill="#FFFFFF" d="M1451.88,330.072l8.934-33.051h-8.438c-1.984-0.992-5.46-5.955-9.431-6.452s-31.546-1.444-34.746,0
				c-5.128,2.317-4.951,7.943-3.463,9.929c0,0-5.636-0.828-7.292,4.631c-1.072,3.541-0.33,6.783-0.33,6.783
				s-4.159,1.688-4.666,5.295c-0.793,5.627,2.35,7.61,2.35,7.61s-2.683,3.243-2.317,5.255c1.492,8.148,8.771,7.65,8.771,7.65h20.02
				c0,0-0.228,16.039,0,16.877c2.648,9.76,10.756,15.057,13.236,12.904c1.804-1.562,1.47-7.818,1.47-9.43
				C1435.977,342.357,1451.88,330.072,1451.88,330.072z"/>
			<polygon fill="#FFFFFF" points="1453.37,336.068 1480.008,336.068 1492.25,292.223 1464.454,292.223 			"/>
			<polygon fill="#FFFFFF" points="1406.547,339.047 1414.653,339.047 1412.336,348.146 1404.56,348.146 			"/>
			<path fill="#FFFFFF" d="M1413.96,349.638c0-0.003,4.197,1.331,2.346,7.856c-3.309,11.666-6.491,31.547-6.699,34.334
				c-0.142,1.882-2.539,6.498-3.753,2.148c-1.294-4.633,2.484-26.552,2.595-28.621c0.094-1.797-0.745-3.313-1.901-0.996
				c-1.159,2.316-3.598,26.051-4.056,27.469c-0.456,1.412-2.398,4.797-3.557,0.33s2.867-26.754,2.813-28.541
				c-0.052-1.738-1.407-3.145-2.399,0.496c-0.99,3.641-3.463,22.291-3.972,25.396c-0.661,4.055-3.261,3.766-4.053-0.99
				c-0.993-5.959,3.475-32.844,7.034-37.313C1400.19,348.902,1400.559,349.472,1413.96,349.638z"/>
			<polygon fill="#FFFFFF" points="1424.332,288.81 1430.768,266.9 1417.953,266.969 1414.653,288.81 			"/>
			<path fill="none" stroke="#FF3333" stroke-width="10" stroke-miterlimit="10" d="M1519.45,328.543
			c0,46.898-38.02,84.916-84.916,84.916s-84.916-38.018-84.916-84.916c0-46.895,38.02-84.916,84.916-84.916
			S1519.45,281.648,1519.45,328.543z"/>
		</g>
		<path  id="arrow" d="M505.972,1991.809l-41.814-32.789c0,0-1.64,50.34-49.606,44.876
		c-19.247-2.193-7.105-24.737-8.553-23.358c-7.629,7.253-24.475,16.605-46.057,15.247c-7.029-0.442,12.899,2.839,31.09,39.497
		c1.102,2.219,2.024-16.979,17.418-12.006C414.193,2025.131,490.493,2037.047,505.972,1991.809z"/>
		<g id="picShroom" opacity="0.15">
			<g>
				<g>
					<path fill="#D16B6B" d="M1166.146,1480.793c-8.202,0.625-16.409,0.777-24.597,0.378
						c-78.469-3.792-166.279-21.438-246.161-31.578c-52.75-6.699-105.615,1.777-158.297,4.844c-28.34,1.649-57.129,4.204-85.34-0.393
						c-29.922-4.87-54.513-19.915-82.54-30.322c-31.211-11.591-60.542-27.99-90.982-41.117
						c-53.507-23.07-89.566-53.898-89.698-114.405c-0.063-29.886-2.064-56.508,7.137-85.652
						c9.334-29.563,25.075-56.801,42.988-81.939c35.342-49.607,79.941-91.452,123.139-134.024
						c68.483-67.495,147.64-124.236,211.378-196.566c60.78-68.975,101.123-158.229,208.548-133.437
						c98.061,22.634,161.227,105.84,212.321,182.642c46.52,69.92,112.672,117.889,163.739,183.276
						c52.388,67.081,105.87,145.708,127.992,224.898c26.017,93.129-27.745,136.203-109.084,174.363
						C1312.714,1431.778,1239.455,1475.215,1166.146,1480.793z"/>
					<path fill="#D16B6B" d="M817.344,1592.668c8.54-0.684,17.223-0.537,26.406,1.045c12.368,2.128,16.226-0.791,28.166-1.69
						c12.955-0.982,17.963,8.054,28.681,11.19c6.906,2.021,20.393,1.863,27.625,0.705c5.733-0.918,7.474-5.875,14.203-5.035
						c4.612,0.577,5.523,7.696,11.555,7.431c6.249-0.274,8.12-9.009,14.114-10.29c4.881-1.041,8.071,2.708,12.521,2.948
						c6.094,0.331,11.766-4.289,17.712-5.362c6.4-1.15,13.887-1.546,20.404-1.722c21.565-0.58,33.854,10.7,55.979-2.44
						c3.979-2.365,12.745-11.938,17.592-11.058c-9.288-1.684-19.07-9.119-25.227-16.945c-3.228-4.104-2.279-8.474-6.88-12.237
						c-5.421-4.433-9.694-2.357-15.29-5.779c-13.113-8.03-12.99-16.148-13.959-27.045c-0.536-5.985-1.509-12.542-3.227-18.311
						c-1.176-3.949-5.009-11.185-5.355-12.557c-3.208-12.56-1.901-27.292-1.386-40.583c0.44-11.466,4.559-28.306,0.271-38.958
						c-5.977-14.849-30.457-32.341-46.337-32.641c-15.333-0.288-31.805,6.535-48.02,6.624c-28.967,0.159-67.973-2.106-78.627,32.021
						c-8.688,27.843,6.471,59.1-3.236,86.059c-8.274,22.971-35.571,30.464-45.92,51.358c-4.453,8.991-3.889,20.057-8.164,29.441
						c-2.248,4.938-13.445,18.017-20.695,11.934C781.287,1600.031,804.607,1593.689,817.344,1592.668z"/>
					<path fill="#D16B6B" d="M882.781,1520.864c-0.709,4.699-1.582,9.363-2.634,13.985c-4.777,21.002-10.071,41.963-12.898,63.349
						c-2.669,20.171,0.123,42.585-7.572,61.748c-6.894,17.161-18.489,17.099-35.195,17.229c-17.729,0.139-35.32,5.961-49.279,16.936
						c-6.091,4.791-10.455,12.371-17.014,16.402c-8.291,5.094-18.078,9.343-27.68,11.089c-7.67,1.396-27.125-3.819-33.158,0.447
						c-2.796,1.977-10.253,29.697-6.82,30.423c5.347,1.131,11.106-3.16,16.191-4.545c26.62-7.248,53.812-12.074,81.032-16.434
						c41.485-6.64,83.512-8.662,125.467-9.432c42.441-0.78,85.054-2.705,127.479-0.46c33.492,1.773,66.373,8.689,99.397,14.086
						c8.511,1.388,92.263,8.456,91.877,6.231c-3.768-21.813-29.119-12.598-41.854-18.431c-20.383-9.339-29.45-26.415-53.543-30.313
						c-6.702-1.083-10.122-2.747-16.498-5.995c-6.101-3.106-12.353-4.434-17.918-8.413c-11.999-8.584-26.749-13.86-40.975-17.369
						c-14.204-3.503-24.811-2.565-39.096-2.605c-6.139-0.018-20.645,1.969-25.659-0.805c-9.022-4.994-4.527-21.362-4.527-30.874
						c0-42.105,1.974-84.174,2.482-126.273c0.158-13.28-0.783-26.546-0.901-39.822c-0.117-13.42,1.027-22.639,4.256-35.7
						c2.933-11.879,7.534-15.299,2.812-27.89c-2.86-7.628-6.379-16.678-12.071-22.707c-14.233-15.078-34.896-1.814-51.992-7.135
						c-10.188-3.169-15.911-12.533-27.886-10.37c-6.912,1.247-13.334,4.265-18.335,9.245c-8.084,8.043-18.956,19.885-22.246,31.118
						c-3.1,10.594,2.362,20.08,5.992,29.812C885.09,1457.056,887.469,1489.605,882.781,1520.864z"/>
				</g>
				<g>
					<path fill="#D16B6B" d="M1166.146,1480.793c-8.202,0.625-16.409,0.777-24.597,0.378
						c-78.469-3.792-166.279-21.438-246.161-31.578c-52.75-6.699-105.615,1.777-158.297,4.844c-28.34,1.649-57.129,4.204-85.34-0.393
						c-29.922-4.87-54.513-19.915-82.54-30.322c-31.211-11.591-60.542-27.99-90.982-41.117
						c-53.507-23.07-89.566-53.898-89.698-114.405c-0.063-29.886-2.064-56.508,7.137-85.652
						c9.334-29.563,25.075-56.801,42.988-81.939c35.342-49.607,79.941-91.452,123.139-134.024
						c68.483-67.495,147.64-124.236,211.378-196.566c60.78-68.975,101.123-158.229,208.548-133.437
						c98.061,22.634,161.227,105.84,212.321,182.642c46.52,69.92,112.672,117.889,163.739,183.276
						c52.388,67.081,105.87,145.708,127.992,224.898c26.017,93.129-27.745,136.203-109.084,174.363
						C1312.714,1431.778,1239.455,1475.215,1166.146,1480.793z"/>
					<path fill="#D16B6B" d="M817.344,1592.668c8.54-0.684,17.223-0.537,26.406,1.045c12.368,2.128,16.226-0.791,28.166-1.69
						c12.955-0.982,17.963,8.054,28.681,11.19c6.906,2.021,20.393,1.863,27.625,0.705c5.733-0.918,7.474-5.875,14.203-5.035
						c4.612,0.577,5.523,7.696,11.555,7.431c6.249-0.274,8.12-9.009,14.114-10.29c4.881-1.041,8.071,2.708,12.521,2.948
						c6.094,0.331,11.766-4.289,17.712-5.362c6.4-1.15,13.887-1.546,20.404-1.722c21.565-0.58,33.854,10.7,55.979-2.44
						c3.979-2.365,12.745-11.938,17.592-11.058c-9.288-1.684-19.07-9.119-25.227-16.945c-3.228-4.104-2.279-8.474-6.88-12.237
						c-5.421-4.433-9.694-2.357-15.29-5.779c-13.113-8.03-12.99-16.148-13.959-27.045c-0.536-5.985-1.509-12.542-3.227-18.311
						c-1.176-3.949-5.009-11.185-5.355-12.557c-3.208-12.56-1.901-27.292-1.386-40.583c0.44-11.466,4.559-28.306,0.271-38.958
						c-5.977-14.849-30.457-32.341-46.337-32.641c-15.333-0.288-31.805,6.535-48.02,6.624c-28.967,0.159-67.973-2.106-78.627,32.021
						c-8.688,27.843,6.471,59.1-3.236,86.059c-8.274,22.971-35.571,30.464-45.92,51.358c-4.453,8.991-3.889,20.057-8.164,29.441
						c-2.248,4.938-13.445,18.017-20.695,11.934C781.287,1600.031,804.607,1593.689,817.344,1592.668z"/>
					<path fill="#D16B6B" d="M882.781,1520.864c-0.709,4.699-1.582,9.363-2.634,13.985c-4.777,21.002-10.071,41.963-12.898,63.349
						c-2.669,20.171,0.123,42.585-7.572,61.748c-6.894,17.161-18.489,17.099-35.195,17.229c-17.729,0.139-35.32,5.961-49.279,16.936
						c-6.091,4.791-10.455,12.371-17.014,16.402c-8.291,5.094-18.078,9.343-27.68,11.089c-7.67,1.396-27.125-3.819-33.158,0.447
						c-2.796,1.977-10.253,29.697-6.82,30.423c5.347,1.131,11.106-3.16,16.191-4.545c26.62-7.248,53.812-12.074,81.032-16.434
						c41.485-6.64,83.512-8.662,125.467-9.432c42.441-0.78,85.054-2.705,127.479-0.46c33.492,1.773,66.373,8.689,99.397,14.086
						c8.511,1.388,92.263,8.456,91.877,6.231c-3.768-21.813-29.119-12.598-41.854-18.431c-20.383-9.339-29.45-26.415-53.543-30.313
						c-6.702-1.083-10.122-2.747-16.498-5.995c-6.101-3.106-12.353-4.434-17.918-8.413c-11.999-8.584-26.749-13.86-40.975-17.369
						c-14.204-3.503-24.811-2.565-39.096-2.605c-6.139-0.018-20.645,1.969-25.659-0.805c-9.022-4.994-4.527-21.362-4.527-30.874
						c0-42.105,1.974-84.174,2.482-126.273c0.158-13.28-0.783-26.546-0.901-39.822c-0.117-13.42,1.027-22.639,4.256-35.7
						c2.933-11.879,7.534-15.299,2.812-27.89c-2.86-7.628-6.379-16.678-12.071-22.707c-14.233-15.078-34.896-1.814-51.992-7.135
						c-10.188-3.169-15.911-12.533-27.886-10.37c-6.912,1.247-13.334,4.265-18.335,9.245c-8.084,8.043-18.956,19.885-22.246,31.118
						c-3.1,10.594,2.362,20.08,5.992,29.812C885.09,1457.056,887.469,1489.605,882.781,1520.864z"/>
				</g>
			</g>
			<path fill="#FCF9F4" d="M925.873,1462.066c0,11.408-9.246,20.655-20.654,20.655c-11.405,0-20.651-9.247-20.651-20.655
				c0-11.404,9.246-20.653,20.651-20.653C916.627,1441.413,925.873,1450.662,925.873,1462.066z"/>
			<path d="M910.903,1462.066c0,3.139-2.544,5.682-5.685,5.682c-3.134,0-5.679-2.543-5.679-5.682s2.545-5.682,5.679-5.682
				C908.359,1456.385,910.903,1458.928,910.903,1462.066z"/>
			<path fill="#FCF9F4" d="M987.469,1462.066c0,11.408-9.247,20.655-20.654,20.655c-11.405,0-20.652-9.247-20.652-20.655
				c0-11.404,9.247-20.653,20.652-20.653C978.222,1441.413,987.469,1450.662,987.469,1462.066z"/>
			<circle cx="966.816" cy="1462.066" r="5.639"/>
			<path d="M947.565,1448.15c0.42,1.779,9.308-2.218,20.788-4.95c11.488-2.723,21.219-3.146,20.796-4.929
				c-0.426-1.791-10.078-1.031-21.563,1.697C956.104,1442.698,947.136,1446.355,947.565,1448.15z"/>
			<path d="M925.512,1449.82c-0.573,1.738-9.085-3.008-20.29-6.717c-11.208-3.694-20.87-4.948-20.296-6.691
				c0.577-1.747,10.129-0.162,21.338,3.539C917.469,1443.657,926.09,1448.066,925.512,1449.82z"/>
			<path fill="#FCF9F4" d="M965.419,1513.405c-4.889-7.451-13.09-8.053-22.487-7.091c-4.867,0.492-8.207,1.365-13.096,1.66
				c-4.615,0.278-10.759-1.155-14.952,1.138c-5.39,2.933-12.545,21.081-12.545,21.081s19.014-6.084,34.481-6.82
				c24.749-1.186,36.312,4.942,36.312,4.942S968.594,1518.26,965.419,1513.405z"/>
		</g>



		<text transform="matrix(1 0 0 1 452.2822 308.4619)">
			<tspan x="0" y="0" fill="#FFFFFF" font-family="'IstokWeb-Bold'" font-size="56">Бледная поганка</tspan>
			<tspan x="0" y="46" fill="#FFFFFF" font-family="'IstokWeb-Regular'" font-size="36">Смертельно ядовитый гриб</tspan>
		</text>

		<text transform="matrix(1 0 0 1 454.876 524.7285)" id="addInfo">
			
			<tspan x="0" y="0" font-family="'Roboto-Medium'" >Последствия отравления:</tspan>
			<tspan x="0" y="52" font-family="'Roboto-Light'" >Смерть наступает в 90% случаев, через 16 дней </tspan>
			<tspan x="0" y="104" font-family="'Roboto-Light'">после отравления. Если лечение началось в </tspan>
			<tspan x="0" y="156" font-family="'Roboto-Light'" font-size="40">течение 36 часов после приёма гриба, гибель </tspan>
			<tspan x="0" y="208" font-family="'Roboto-Light'" font-size="40">можно предотвритить. Для отравления достаточно </tspan>
			<tspan x="0" y="260" font-family="'Roboto-Light'" font-size="40">30 граммов — это треть/половина одного гриба.</tspan>
			<tspan x="0" y="364" font-family="'Roboto-Medium'" font-size="40">Признаки отравления: </tspan>
			<tspan x="0" y="416" font-family="'Roboto-Light'" font-size="40">Спустя ¼-2 суток появляется рвота, кишечные </tspan>
			<tspan x="0" y="468" font-family="'Roboto-Light'" font-size="40">колики, боли в мышцах, неутолимая жажда, </tspan>
			<tspan x="0" y="520" font-family="'Roboto-Light'" font-size="40">холероподобный понос (часто с кровью). </tspan>
			<tspan x="0" y="572" font-family="'Roboto-Light'" font-size="40">Артериальное давление понижено, наблюдается </tspan>
			<tspan x="0" y="624" font-family="'Roboto-Light'" font-size="40">потеря сознания. </tspan>
			<tspan x="0" y="728" font-family="'Roboto-Medium'" font-size="40">Первая помощь: </tspan>
			<tspan x="0" y="780" font-family="'Roboto-Light'" font-size="40">На первом этапе — промывание желудка и </tspan>
			<tspan x="0" y="832" font-family="'Roboto-Light'" font-size="40">принятие активированного угля. В дальнейшем </tspan>
			<tspan x="0" y="884" font-family="'Roboto-Light'" font-size="40">проводится лечение обезвоживания. Хорошим </tspan>
			<tspan x="0" y="936" font-family="'Roboto-Light'" font-size="40">антидотом является отвар из расторопши </tspan>
			<tspan x="0" y="988" font-family="'Roboto-Light'" font-size="40">пятнистой.</tspan>
			<tspan x="0" y="1040" font-family="'Roboto-Light'" font-size="40">Требуется госпитализация. Часто единственный </tspan>
			<tspan x="0" y="1092" font-family="'Roboto-Light'" font-size="40">способ предотвратить смерть — пересадка печени.</tspan>
			<tspan x="0" y="1196" font-family="'Roboto-Medium'" font-size="40">Двойники:</tspan>
			<tspan x="0" y="1248" opacity="0.9" fill="#024702" font-family="'Roboto-Light'" font-size="40">Шампиньоны</tspan>
			<tspan x="251.406" y="1248" font-family="'Roboto-Light'" font-size="40">. У них  не бывает вольвы </tspan>
			<tspan x="0" y="1300" opacity="0.9" fill="#024702" font-family="'Roboto-Light'" font-size="40">Сыроежки</tspan>
			<tspan x="194.707" y="1300" font-family="'Roboto-Light'" font-size="40">. Не бывает ни вольвы, ни кольца,  </tspan>
			<tspan x="0" y="1352" font-family="'Roboto-Light'" font-size="40">отличаются характерной ломкостью мякоти.</tspan>
			<tspan x="0" y="1404" opacity="0.9" fill="#024702" font-family="'Roboto-Light'" font-size="40">Зеленушки</tspan>
			<tspan x="204.512" y="1404" font-family="'Roboto-Light'" font-size="40">. Нет кольца и вольвы.</tspan>
		</text>
	</g>
















	<g id="frontSide">
		<rect x="2203" y="207.206" fill="#FF3333" width="1230" height="1854.739"/>
		
			
		<rect x="2203" y="970.39" opacity="0.6" width="1230" height="159.316"/>
		<rect x="2333" y="1194.287" fill="none" width="971.875" height="1257.117"/>
		<text transform="matrix(1 0 0 1 2333 1229.3389)"><tspan x="0" y="0" fill="#FDFFFD" font-family="'Roboto-Medium'" font-size="46">Где искать</tspan><tspan x="0" y="52" font-family="'Roboto-Light'" font-size="40">Европа, Северная  Америка, Азия. </tspan><tspan x="0" y="104" font-family="'Roboto-Light'" font-size="40">Смешанные, лиственные леса.</tspan><tspan x="0" y="208" fill="#FDFFFD" font-family="'Roboto-Medium'" font-size="46">Когда искать</tspan><tspan x="0" y="260" font-family="'Roboto-Light'" font-size="40">Июль — конец сентября.</tspan><tspan x="0" y="364" fill="#FDFFFD" font-family="'Roboto-Medium'" font-size="46">Что искать</tspan><tspan x="0" y="416" font-family="'Roboto-Light'" font-size="40">Шляпка 5—10 см, оливковая или сероватая, </tspan><tspan x="0" y="468" font-family="'Roboto-Light'" font-size="40">от полушаровидной до плоской формы, с гладким </tspan><tspan x="0" y="520" font-family="'Roboto-Light'" font-size="40">краем и волокнистой поверхностью.</tspan><tspan x="0" y="572" font-family="'Roboto-Light'" font-size="40">Ножка 8—16 × 1—2,5 см, полая с утолщением </tspan><tspan x="0" y="624" font-family="'Roboto-Light'" font-size="40">у основания.</tspan><tspan x="0" y="676" font-family="'Roboto-Light'" font-size="40">Мякоть белая, мясистая, не меняет цвет при </tspan><tspan x="0" y="728" font-family="'Roboto-Light'" font-size="40">повреждении.</tspan><tspan x="0" y="780" font-family="'Roboto-Light'" font-size="40">Вкуси запах слабовыраженны.</tspan></text>
		<text transform="matrix(1 0 0 1 2333 1069.7002)" fill="#FFFFFF" font-family="'IstokWeb-Bold'" font-size="56">Бледная поганка</text>
		<g>
			<g>
				<path fill="#FFFFFF" d="M3332.598,330.072l8.934-33.051h-8.438c-1.984-0.992-5.46-5.955-9.431-6.452s-31.546-1.444-34.746,0
				
					c-5.128,2.317-4.951,7.943-3.463,9.929c0,0-5.636-0.828-7.292,4.631c-1.072,3.541-0.33,6.783-0.33,6.783
					s-4.159,1.688-4.666,5.295c-0.793,5.627,2.35,7.61,2.35,7.61s-2.683,3.243-2.317,5.255c1.492,8.148,8.771,7.65,8.771,7.65h20.02
					c0,0-0.228,16.039,0,16.877c2.648,9.76,10.756,15.057,13.236,12.904c1.804-1.562,1.47-7.818,1.47-9.43
					C3316.694,342.357,3332.598,330.072,3332.598,330.072z"/>
				<polygon fill="#FFFFFF" points="3334.088,336.068 3360.726,336.068 3372.968,292.223 3345.172,292.223 			"/>
				<polygon fill="#FFFFFF" points="3287.265,339.047 3295.371,339.047 3293.054,348.146 3285.277,348.146 			"/>
				<path fill="#FFFFFF" d="M3294.678,349.638c0-0.003,4.197,1.331,2.346,7.856c-3.309,11.666-6.491,31.547-6.699,34.334
					c-0.142,1.882-2.539,6.498-3.753,2.148c-1.294-4.633,2.484-26.552,2.595-28.621c0.094-1.797-0.745-3.313-1.901-0.996
					c-1.159,2.316-3.598,26.051-4.056,27.469c-0.456,1.412-2.398,4.797-3.557,0.33s2.867-26.754,2.813-28.541
					c-0.052-1.738-1.407-3.145-2.399,0.496c-0.99,3.641-3.463,22.291-3.972,25.396c-0.661,4.055-3.261,3.766-4.053-0.99
					c-0.993-5.959,3.475-32.844,7.034-37.313C3280.908,348.902,3281.276,349.472,3294.678,349.638z"/>
				<polygon fill="#FFFFFF" points="3305.05,288.81 3311.485,266.9 3298.671,266.969 3295.371,288.81 			"/>
			</g>
			<path fill="none" stroke="#FF3333" stroke-width="10" stroke-miterlimit="10" d="M3400.168,328.543
				c0,46.898-38.02,84.916-84.916,84.916s-84.916-38.018-84.916-84.916c0-46.895,38.02-84.916,84.916-84.916
				S3400.168,281.648,3400.168,328.543z"/>
		</g>
		<path fill="#FFE1E1" d="M3262.612,2004.001l41.814-32.789c0,0,1.64,50.34,49.606,44.876c19.247-2.193,7.105-24.737,8.553-23.358
			c7.629,7.253,24.475,16.605,46.057,15.247c7.029-0.442-12.899,2.839-31.09,39.497c-1.102,2.219-2.024-16.979-17.418-12.006
			C3354.392,2037.323,3278.092,2049.239,3262.612,2004.001z"/>
	</g>
</g>
</svg>
