<?xml version="1.0" encoding="utf-8"?>
<!-- Generator: Adobe Illustrator 16.0.0, SVG Export Plug-In . SVG Version: 6.00 Build 0)  -->
<!DOCTYPE svg PUBLIC "-//W3C//DTD SVG 1.1//EN" "http://www.w3.org/Graphics/SVG/1.1/DTD/svg11.dtd">
<svg version="1.1" id="Слой_1" xmlns="http://www.w3.org/2000/svg" xmlns:xlink="http://www.w3.org/1999/xlink" x="0px" y="0px"
	 width="595.281px" height="841.891px" viewBox="0 0 595.281 841.891" enable-background="new 0 0 595.281 841.891"
	 xml:space="preserve">
<g id="Слой_3">
	<circle fill="none" stroke="#FF43FF" stroke-width="7" stroke-miterlimit="10" cx="504.956" cy="55.076" r="38.523"/>
	<g>
		<path  fill="#FFFFFF" d="M500.581,73.959l-1.529-3.138c-0.241-0.533-0.546-1.018-0.828-1.52l-0.856-1.497
			c-0.564-1.002-1.257-1.935-1.879-2.907c-0.31-0.487-0.681-0.935-1.018-1.404l-1.036-1.395l-2.164-2.729
			c-0.724-0.913-1.463-1.812-2.174-2.736c-0.704-0.93-1.436-1.838-2.117-2.786l-2.034-2.85l-0.252-0.354l0.441-0.108l3.022-0.746
			c0.498-0.146,0.979-0.351,1.468-0.521l1.464-0.537c0.481-0.195,0.944-0.438,1.417-0.655l1.414-0.666l2.748-1.507l5.381-3.254
			l2.724-1.584l2.79-1.467l0.103-0.054l0.036,0.118l0.594,1.936c0.206,0.642,0.376,1.298,0.613,1.93l0.796,1.865
			c0.271,0.618,0.514,1.251,0.813,1.857c0.643,1.189,1.275,2.386,1.93,3.568l2.16,3.436l2.346,3.313
			c0.813,1.08,1.659,2.138,2.487,3.206c0.42,0.53,0.877,1.03,1.313,1.547l1.324,1.537c0.902,1.006,1.825,1.996,2.748,2.982
			l0.122,0.13l-0.153,0.096c-2.203,1.372-4.396,2.759-6.573,4.172s-4.32,2.889-6.476,4.362l-3.261,2.193
			c-1.103,0.714-2.225,1.41-3.343,2.118c-1.146,0.657-2.313,1.303-3.482,1.94c-1.209,0.563-2.426,1.13-3.656,1.667l-1.034,0.452
			l-0.912-0.951c-1.114-1.16-2.208-2.343-3.276-3.548c-1.019-1.244-2.022-2.502-2.994-3.782c-0.929-1.313-1.852-2.629-2.729-3.972
			c-0.842-1.368-1.673-2.741-2.459-4.138c-0.746-1.421-1.506-2.831-2.219-4.263l-2.024-4.345c-0.617-1.474-1.255-2.933-1.896-4.385
			c-0.583-1.481-1.189-2.947-1.814-4.402l-0.081-0.188l0.167-0.083c2.732-1.376,5.423-2.817,8.071-4.335s5.261-3.101,7.828-4.771
			c2.576-1.646,5.106-3.369,7.649-5.06c1.267-0.855,2.546-1.686,3.824-2.515c1.274-0.836,2.563-1.646,3.861-2.438l1.337-0.816
			l0.951,1.409c1.753,2.595,3.428,5.23,5.027,7.915c1.723,2.613,3.397,5.257,5.026,7.938c0.847,1.32,1.701,2.638,2.529,3.975
			l2.494,4.007l5.131,7.941l0.063,0.097l0.015,0.08l0.014,0.077l0.018,0.104l-0.01,0.032l-0.164,0.521l-0.025-0.289
			c-0.026-0.081-0.162-0.144-0.21-0.143c-0.063-0.001-0.051,0.008-0.043,0.005c0.024-0.002,0.082-0.021,0.154-0.048
			c0.039-0.013,0.078-0.026,0.137-0.041c0.021-0.006,0.068-0.014,0.106-0.017c0.029-0.006,0.12,0.001,0.174,0.016
			c0.084,0.028,0.177,0.087,0.216,0.152c0.058,0.078,0.072,0.139,0.077,0.177c0.022,0.112,0.005,0.14,0.004,0.209l-0.001,0.033
			l-0.013,0.03c-0.027,0.067-0.079,0.152-0.12,0.189c-0.038,0.033-0.086,0.075-0.12,0.094c-0.07,0.042-0.132,0.07-0.187,0.093
			l-0.139,0.055l-0.035,0.015c-0.023,0.013,0.029-0.021,0.026-0.044l0.038-0.125c-0.004-0.004,0.013,0.087-0.015,0.004l0.035,0.115
			c0.024,0.073,0.044,0.161,0.073,0.221c0.08,0.1,0.115,0.198,0.218,0.315c0.186,0.233,0.407,0.451,0.635,0.667l0.011,0.009
			l0.083,0.086l0.015,0.017l0.035,0.073c0.013,0.026,0.018,0.071,0.029,0.077c0.008,0.02,0.019,0.026,0.057,0.038
			c0.073,0.032,0.198-0.01,0.398,0.093l0.14,0.072l-0.104,0.159l-0.027,0.034c-0.017,0.024,0.018-0.037-0.015-0.045l-0.02-0.032
			c0.103,0.164,0.211,0.362,0.215,0.568c0.034,0.208-0.029,0.396-0.057,0.587l-0.001,0.003l-0.003,0.008
			c-0.06,0.168-0.13,0.336-0.182,0.506l-0.005,0.014l-0.004,0.004c-0.073,0.102-0.159,0.154-0.227,0.228
			c-0.033,0.035-0.055,0.073-0.063,0.106c0,0.033,0.024,0.064,0.058,0.097l-0.011-0.005c0.055,0.008,0.109,0.012,0.182-0.006
			c0.04,0.009,0.093,0.011,0.106,0.047l0.067,0.087l0.024,0.031l-0.051,0.01c-0.043,0.008-0.08,0.019-0.104,0.055
			c-0.017,0.04-0.027,0.086-0.028,0.136c-0.003,0.051-0.003,0.103-0.018,0.159c-0.014,0.063-0.074,0.107-0.143,0.113l0,0
			l0.036-0.034c-0.015,0.268,0.036,0.552,0.052,0.827c0.018,0.278,0.116,0.537,0.171,0.805c0.064,0.266,0.198,0.512,0.295,0.768
			c0.043,0.131,0.134,0.238,0.199,0.358l0.213,0.352c0.157,0.222,0.348,0.421,0.52,0.633c0.197,0.187,0.411,0.356,0.614,0.537
			l0.695,0.424l0.756,0.298l-0.084,0.264l-0.787-0.339l-0.716-0.467c-0.209-0.194-0.427-0.379-0.625-0.58
			c-0.174-0.225-0.362-0.438-0.52-0.672l-0.209-0.369c-0.063-0.126-0.152-0.239-0.192-0.376c-0.093-0.267-0.221-0.521-0.279-0.798
			c-0.048-0.278-0.142-0.552-0.149-0.83c-0.007-0.28-0.049-0.55-0.025-0.839l0.002-0.021l0.035-0.013l0,0
			c0.037-0.005,0.067-0.016,0.08-0.06c0.015-0.042,0.019-0.093,0.023-0.144c0.004-0.051,0.012-0.104,0.035-0.159
			c0.034-0.058,0.092-0.075,0.15-0.085l-0.023,0.042l-0.054-0.069c-0.016-0.035-0.044-0.019-0.063-0.028
			c-0.058,0.018-0.132,0.025-0.21,0.015l-0.005-0.001l-0.006-0.005c-0.046-0.037-0.094-0.083-0.099-0.16
			c0.009-0.068,0.042-0.121,0.075-0.165c0.066-0.087,0.15-0.157,0.191-0.23l-0.008,0.018c0.035-0.184,0.09-0.357,0.135-0.54
			l-0.004,0.013c0.005-0.175,0.046-0.354-0.001-0.512c-0.02-0.164-0.114-0.294-0.216-0.431l-0.015-0.018l-0.005-0.017
			c-0.02-0.059-0.004-0.183,0.019-0.199l0.062-0.1l0.035,0.231c-0.018-0.011-0.146,0.003-0.303-0.017
			c-0.075-0.01-0.188-0.05-0.251-0.125c-0.082-0.076-0.101-0.154-0.137-0.236l0.051,0.09l-0.083-0.071l0.011,0.009
			c-0.259-0.2-0.518-0.404-0.756-0.648c-0.123-0.112-0.241-0.299-0.354-0.454c-0.046-0.079-0.065-0.149-0.102-0.225l-0.047-0.11
			c-0.031-0.162-0.02-0.15-0.026-0.235l-0.005-0.053l0.043-0.072c0.036-0.059,0.117-0.141,0.143-0.152
			c0.036-0.024,0.078-0.053,0.104-0.063l0.15-0.08c0.041-0.022,0.074-0.043,0.094-0.059c0.012-0.009-0.001-0.007,0.003-0.007
			c-0.003,0.001-0.036,0.034-0.034,0.059l-0.014,0.063c-0.003,0.002-0.004-0.038-0.002,0.009c0.002,0.005,0.006,0.034,0.039,0.085
			c0.026,0.032,0.08,0.084,0.138,0.094c0.021,0.014,0.077,0.01,0.074,0.012c0.005,0.002,0.019-0.003,0.009,0.002l-0.055,0.025
			c-0.052,0.024-0.115,0.061-0.221,0.096c-0.055,0.014-0.109,0.041-0.24,0.03c-0.115,0.001-0.309-0.108-0.371-0.244l-0.06-0.125
			l0.033-0.165l0.076-0.384l0.008,0.136l-0.033-0.117l0.076,0.176l-6.11-7.243c-1.995-2.451-3.998-4.904-5.925-7.416
			c-0.947-1.269-1.864-2.56-2.779-3.853c-0.925-1.287-1.827-2.589-2.708-3.906c-1.712-2.671-3.35-5.392-4.908-8.152l2.287,0.593
			c-1.366,0.693-2.743,1.371-4.135,2.021c-1.387,0.659-2.771,1.316-4.172,1.948c-2.787,1.284-5.588,2.536-8.342,3.863
			c-2.761,1.308-5.477,2.704-8.155,4.167c-2.68,1.462-5.315,3-7.911,4.603L477.025,50c0.745,1.394,1.511,2.775,2.298,4.143
			c0.823,1.349,1.655,2.688,2.506,4.014l2.668,3.895c0.938,1.264,1.85,2.537,2.764,3.805c0.96,1.238,1.903,2.48,2.82,3.739
			c0.965,1.224,1.92,2.451,2.852,3.694c0.977,1.208,1.95,2.416,2.894,3.649c0.989,1.193,1.976,2.391,2.93,3.621l-1.946-0.499
			c1.191-0.396,2.405-0.744,3.611-1.132c1.187-0.447,2.396-0.855,3.594-1.31l1.78-0.735c0.592-0.251,1.195-0.479,1.781-0.75
			l1.756-0.821c0.584-0.278,1.18-0.536,1.751-0.84c1.146-0.604,2.307-1.185,3.443-1.811c1.137-0.628,2.261-1.278,3.383-1.931
			c2.229-1.331,4.478-2.637,6.731-3.927l-0.032,0.227c-0.888-1.025-1.808-2.021-2.688-3.05l-1.297-1.564
			c-0.429-0.525-0.876-1.034-1.286-1.573c-0.827-1.073-1.672-2.132-2.484-3.215l-2.341-3.322l-2.156-3.444l-1.928-3.577
			c-0.307-0.604-0.557-1.235-0.838-1.853l-0.821-1.86c-0.245-0.632-0.424-1.288-0.64-1.932l-0.621-1.938l0.138,0.063l-2.761,1.496
			l-2.686,1.628l-5.317,3.37l-2.737,1.576l-1.421,0.698c-0.477,0.225-0.941,0.476-1.43,0.68l-1.483,0.563
			c-0.497,0.181-0.983,0.392-1.488,0.547l-3.078,0.793l0.189-0.464l2.051,2.812c0.688,0.935,1.427,1.832,2.137,2.749
			c0.716,0.913,1.465,1.804,2.195,2.707l2.2,2.718l1.062,1.397c0.346,0.472,0.725,0.918,1.044,1.41
			c0.643,0.98,1.352,1.915,1.938,2.936l0.895,1.521c0.293,0.51,0.612,1.011,0.855,1.536l1.563,3.122L500.581,73.959z"/>
	</g>
	<g>
		<path  fill="#FFFFFF" d="M501.963,56.719l-0.32,2.223c-0.104,0.741-0.125,1.475-0.191,2.211c-0.063,0.736-0.03,1.482-0.051,2.224
			c-0.013,0.371,0.023,0.743,0.033,1.113l0.048,1.115l0.334,4.478c0.037,0.75,0.1,1.499,0.119,2.25l0.054,2.253l0.009,0.346
			l-0.321-0.138c-1.185-0.511-2.376-1.005-3.584-1.457c-1.21-0.444-2.432-0.856-3.667-1.227l-1.868-0.502l-1.889-0.426
			c-1.266-0.26-2.541-0.469-3.819-0.661l-0.088-0.013l0.029-0.085l0.378-1.117l0.302-1.141l0.228-1.159l0.156-1.171
			c0.069-0.785,0.103-1.572,0.104-2.361c-0.009-0.788-0.043-1.576-0.102-2.362c-0.122-1.571-0.345-3.136-0.598-4.692l-0.842-4.662
			l-0.023-0.131l0.14,0.005c1.669,0.059,3.337,0.105,5.008,0.134c1.671,0.007,3.344,0.01,5.026-0.023l2.533-0.032
			c0.849,0.006,1.699,0.036,2.555,0.053c0.853,0.053,1.71,0.119,2.568,0.192c0.853,0.132,1.713,0.253,2.566,0.413l0.841,0.156
			l0.155,0.97c0.165,1.023,0.36,2.047,0.477,3.079c0.092,1.033,0.192,2.067,0.239,3.104c0.016,1.037,0.034,2.074-0.001,3.109
			c-0.068,1.034-0.1,2.068-0.206,3.098c-0.128,1.028-0.243,2.054-0.396,3.075l-0.531,3.045c-0.219,1.008-0.418,2.014-0.612,3.018
			c-0.242,0.998-0.438,1.999-0.643,2.998l-0.032,0.161l-0.146-0.02c-1.952-0.27-3.905-0.449-5.866-0.581
			c-0.979-0.079-1.957-0.154-2.94-0.19c-0.982-0.04-1.963-0.103-2.949-0.106c-1.968-0.05-3.939-0.033-5.909-0.041
			c-0.983,0.016-1.965,0.018-2.944,0.016c-0.981,0.012-1.957-0.027-2.936-0.051l-1.146-0.028l-0.019-1.294
			c-0.024-2.014,0.041-4.019,0.158-6.024c0.028-2.011,0.101-4.021,0.214-6.035c0.056-2.018,0.153-4.038,0.263-6.063
			c0.071-2.025,0.149-4.054,0.187-6.083l0.002-0.09l0.023-0.052l0.021-0.045l0.038-0.082l0.021-0.018l0.281-0.222l-0.111,0.203
			c-0.02,0.069,0.045,0.176,0.079,0.197c0.045,0.032,0.046,0.022,0.043,0.023c-0.009-0.006-0.045-0.017-0.095-0.029
			c-0.054-0.027-0.104,0.004-0.267-0.146c-0.102-0.105-0.074-0.301-0.045-0.336c0.034-0.08,0.054-0.086,0.083-0.127l0.016-0.021
			l0.022-0.016c0.045-0.03,0.112-0.062,0.152-0.066c0.035-0.005,0.082-0.01,0.108-0.008c0.058,0.003,0.104,0.012,0.141,0.021
			l0.092,0.021c0.017,0.004,0.015,0.003,0.019,0.005c0.017,0.002-0.037,0.002-0.051,0.021l-0.086,0.069
			c0.001,0,0.018-0.028,0.012-0.004l0.032-0.075c0.012-0.046,0.017-0.048,0.022-0.099c0.014-0.085,0.014-0.184,0.006-0.284
			c-0.008-0.1-0.021-0.204-0.04-0.307l-0.062-0.325l-0.007-0.033l0.013-0.053c0.011-0.044,0.023-0.03,0.005-0.063
			c-0.021-0.041-0.104-0.063-0.182-0.203l-0.073-0.136l0.153-0.032l0.025-0.007c0.011,0-0.02,0.003-0.025,0.057l-0.001,0.018
			c0.002-0.124,0.025-0.273,0.096-0.391c0.067-0.118,0.159-0.207,0.252-0.289l0.005-0.004l0.002-0.002
			c0.095-0.067,0.19-0.128,0.284-0.201l0.009-0.006l0.003-0.001c0.136-0.044,0.322-0.014,0.275-0.136l0.004,0.008
			c-0.021-0.029-0.048-0.038-0.097-0.061c-0.06-0.035-0.048-0.102-0.045-0.142l0.003-0.044l0.035,0.026
			c0.046,0.036,0.095,0.005,0.133-0.051c0.027-0.04,0.095-0.146,0.188-0.087l-0.036,0.006c0.41-0.581,0.634-1.286,0.622-1.989
			c-0.008-0.703-0.256-1.396-0.697-1.933l0.162-0.129c0.452,0.588,0.686,1.331,0.667,2.062c-0.015,0.73-0.272,1.449-0.71,2.022
			l-0.02,0.024l-0.02-0.019c-0.039-0.036-0.081,0.019-0.123,0.067c-0.028,0.051-0.117,0.122-0.193,0.065l0.038-0.018
			c-0.002,0.041-0.002,0.079,0.022,0.087c0.028,0.011,0.088,0.03,0.117,0.071l0.005,0.005l0.001,0.003
			c0.012,0.038,0.021,0.081-0.008,0.125c-0.03,0.036-0.067,0.051-0.103,0.063c-0.066,0.023-0.138,0.032-0.183,0.058l0.011-0.007
			c-0.082,0.083-0.175,0.161-0.264,0.241l0.008-0.006c-0.158,0.172-0.249,0.354-0.211,0.569l0.001,0.007l-0.002,0.011
			c-0.018,0.088-0.073,0.115-0.096,0.128c-0.028,0.018-0.049,0.022-0.07,0.031l0.079-0.168c0,0,0.07,0.039,0.153,0.108
			c0.101,0.075,0.126,0.262,0.085,0.361l0.005-0.086l0.103,0.31c0.034,0.107,0.063,0.219,0.088,0.335
			c0.022,0.115,0.041,0.235,0.04,0.368c0.003,0.058-0.016,0.164-0.027,0.224l-0.021,0.079c-0.03,0.073-0.045,0.09-0.071,0.136
			l-0.022,0.04l-0.063,0.031c-0.046,0.021-0.133,0.038-0.15,0.034l-0.084-0.002l-0.109-0.012c-0.029-0.003-0.053-0.002-0.063-0.001
			c-0.007,0,0.005,0.005,0.007,0.002c0.007,0,0.046-0.01,0.061-0.027l0.038-0.036c0.006-0.004-0.009,0.019,0.014-0.018
			c0.006,0.002,0.04-0.146-0.038-0.216c-0.099-0.089-0.06-0.042-0.03-0.05c0.035,0.005,0.084,0.009,0.158,0.03
			c0.037,0.014,0.081,0.02,0.157,0.081c0.071,0.047,0.146,0.198,0.129,0.311l-0.018,0.109l-0.096,0.094l-0.172,0.171l0.059-0.098
			l-0.023,0.077l0.025-0.143c0.203,2.021,0.457,4.039,0.689,6.063c0.2,2.025,0.401,4.056,0.535,6.09
			c0.093,2.037,0.154,4.079,0.148,6.119c-0.053,2.043-0.154,4.087-0.35,6.121l-1.164-1.322c0.98,0.13,1.962,0.245,2.938,0.411
			c0.978,0.153,1.955,0.304,2.928,0.481c1.941,0.363,3.878,0.751,5.82,1.073c0.969,0.181,1.942,0.302,2.916,0.447
			c0.972,0.147,1.946,0.259,2.924,0.364c1.956,0.171,3.917,0.295,5.881,0.329l-0.177,0.14c0.095-1.013,0.195-2.023,0.252-3.037
			c0.036-1.017,0.063-2.031,0.076-3.044l-0.058-3.037l-0.137-3.021c-0.085-1.003-0.116-2.005-0.174-3.002
			c-0.091-0.997-0.153-1.993-0.204-2.988c-0.093-0.992-0.156-1.985-0.214-2.98c-0.116-0.987-0.167-1.982-0.241-2.979l0.996,1.126
			c-0.773-0.216-1.538-0.484-2.315-0.719l-2.373-0.632c-0.805-0.172-1.609-0.356-2.425-0.52c-0.818-0.138-1.636-0.307-2.461-0.421
			c-0.828-0.098-1.654-0.222-2.486-0.299l-2.497-0.21c-1.668-0.102-3.336-0.223-5.003-0.354l0.115-0.126
			c0.438,3.124,1.056,6.229,1.305,9.383c0.057,0.788,0.089,1.578,0.096,2.368c-0.005,0.791-0.042,1.58-0.11,2.368l-0.139,1.178
			l-0.209,1.168l-0.285,1.153l-0.364,1.132l-0.059-0.098c1.284,0.172,2.563,0.369,3.841,0.592l1.908,0.38l1.893,0.457
			c1.253,0.34,2.496,0.718,3.719,1.157s2.428,0.922,3.625,1.421l-0.313,0.208l-0.08-2.236c-0.029-0.745-0.1-1.488-0.146-2.232
			l-0.388-4.478l-0.063-1.128c-0.015-0.376-0.056-0.751-0.047-1.129c0.011-0.755-0.03-1.509,0.022-2.266
			c0.06-0.753,0.074-1.521,0.171-2.265l0.292-2.227L501.963,56.719z"/>
	</g>
	<g>
		<path  fill="#FFFFFF" d="M501.646,31.904l0.888-1.83c0.151-0.303,0.226-0.632,0.343-0.946l0.321-0.955
			c0.18-0.653,0.348-1.31,0.537-1.961l0.603-1.947l0.032-0.104l0.089,0.073l0.698,0.582c0.247,0.175,0.504,0.337,0.756,0.506
			c0.524,0.305,1.069,0.576,1.628,0.821l1.694,0.7c0.563,0.235,1.119,0.491,1.667,0.767l0.025,0.014l-0.019,0.023
			c-0.232,0.317-0.475,0.628-0.699,0.951c-0.197,0.34-0.405,0.676-0.596,1.021l-0.505,1.068l-0.436,1.101
			c-0.26,0.744-0.496,1.496-0.697,2.259c-0.188,0.766-0.351,1.537-0.49,2.313l-0.011,0.055l-0.052-0.021
			c-1.406-0.557-2.804-1.129-4.243-1.618l-2.137-0.829c-0.687-0.345-1.375-0.7-2.062-1.068l-0.256-0.139l0.068-0.327
			c0.191-0.913,0.396-1.828,0.646-2.729c0.31-0.881,0.636-1.757,0.991-2.617l1.254-2.492c0.472-0.801,0.958-1.588,1.399-2.396
			l0.025-0.047l0.046,0.022c1.595,0.794,3.214,1.525,4.877,2.169l2.493,0.955c0.83,0.32,1.664,0.625,2.479,0.973l0.354,0.149
			l-0.138,0.396c-0.299,0.863-0.607,1.722-0.953,2.565c-0.346,0.846-0.66,1.7-1.03,2.537l-1.938,5.149l-0.01,0.025l-0.011,0.013
			l-0.022,0.023l-0.015,0.017l-0.009,0.003l-0.15,0.052l0.059-0.051c0.02-0.017,0.001-0.062,0-0.062
			c0-0.006-0.016-0.014-0.007-0.008c0.006,0.005,0.021,0.016,0.038,0.027c0.019,0.014,0.046,0.023,0.078,0.083
			c0.019,0.032-0.009,0.119-0.021,0.115c-0.016,0.015-0.032,0.027-0.05,0.039l-0.009,0.007h-0.006
			c-0.086,0.013-0.129-0.018-0.157-0.033l-0.036-0.022c-0.013-0.006,0.001,0.001,0-0.008l0.037-0.015l-0.012,0.008h-0.001
			l-0.005,0.005c-0.04,0.047-0.078,0.124-0.095,0.211c-0.024,0.087-0.027,0.17-0.048,0.273l-0.011,0.022
			c-0.004,0.017-0.021,0.027-0.01,0.046c0.007,0.021,0.033,0.054,0.045,0.108l-0.044,0.043c-0.002,0.005,0.002-0.002-0.008-0.01
			l0.004-0.009c-0.033,0.048-0.046,0.113-0.098,0.143l-0.145,0.092l-0.003,0.001l-0.15,0.045l-0.005,0.001h-0.001l-0.091-0.013
			c-0.031-0.004-0.045,0.009-0.051,0.035V38.25c0.009,0.021,0.063,0.06,0.032,0.104l-0.009,0.012l-0.007-0.01
			c-0.039-0.061-0.088,0.064-0.157,0.011l0,0l0.013,0.002l-0.043,0.028h0.001l-0.329,0.333l-0.21,0.416
			c-0.023,0.153-0.052,0.307-0.07,0.458l0.079,0.455l-0.066,0.022l-0.068-0.479c0.021-0.158,0.057-0.315,0.085-0.473l0.227-0.42
			l0.344-0.331h0.001l0.043-0.028l0.005-0.003l0.008,0.005l0,0c0.033,0.049,0.094-0.075,0.156-0.009l-0.016,0.001
			c0.026-0.04-0.012-0.046-0.036-0.091v-0.003c0.011-0.1,0.122-0.042,0.158-0.055l-0.005,0.002l0.15-0.062l-0.003,0.001l0.118-0.092
			c0.041-0.026,0.043-0.084,0.067-0.123l0.004-0.009c0.021-0.015,0.054-0.028,0.079-0.03l-0.043,0.043
			c-0.007-0.012-0.023-0.035-0.047-0.075c-0.028-0.048-0.01-0.1,0.016-0.146l-0.011,0.021c0.019-0.174-0.01-0.377,0.133-0.576
			l-0.004,0.005l0.038-0.036l0.015-0.016h0.023c0.027,0,0.073,0.012,0.087,0.02l0.046,0.021l0.03,0.013
			c0.005-0.002-0.01-0.007-0.012,0.002l-0.016,0.007c-0.002-0.001-0.004,0-0.004,0.002c0.007-0.014-0.028,0.047-0.006,0.063
			c0.011,0.025,0.007,0.015-0.009,0.007c-0.018-0.009-0.034-0.018-0.061-0.035c-0.02-0.015-0.085-0.066-0.051-0.167l0.01-0.029
			l0.05-0.021l0.104-0.046l-0.023,0.02l0.016-0.021l-0.021,0.039c0.479-1.772,0.914-3.563,1.417-5.336
			c0.285-0.876,0.624-1.735,0.934-2.604c0.311-0.87,0.655-1.727,1.012-2.576l0.218,0.545c-0.802-0.393-1.585-0.825-2.373-1.244
			l-2.359-1.261c-1.573-0.83-3.191-1.573-4.833-2.253l0.069-0.024c-0.396,0.832-0.743,1.686-1.109,2.524l-0.905,2.593
			c-0.245,0.88-0.501,1.752-0.785,2.614c-0.209,0.883-0.438,1.757-0.695,2.63l-0.188-0.465c0.614,0.404,1.215,0.84,1.837,1.253
			c0.654,0.361,1.305,0.74,1.972,1.095c1.357,0.663,2.758,1.242,4.149,1.834l-0.062,0.033c0.317-1.547,0.72-3.077,1.25-4.564
			l0.438-1.1l0.508-1.07c0.188-0.347,0.392-0.686,0.586-1.029c0.224-0.325,0.462-0.642,0.692-0.963l0.007,0.037
			c-0.548-0.268-1.104-0.52-1.673-0.742l-1.707-0.669c-0.565-0.235-1.121-0.499-1.655-0.804c-0.257-0.169-0.52-0.331-0.771-0.507
			l-0.716-0.586l0.12-0.03l-0.581,1.943c-0.184,0.651-0.346,1.312-0.521,1.966l-0.318,0.975c-0.115,0.32-0.19,0.661-0.341,0.966
			l-0.87,1.837L501.646,31.904z"/>
	</g>
	<g>
		<path  fill="#FFFFFF" d="M524.406,66.851l-0.843-0.283c-0.142-0.049-0.278-0.061-0.419-0.093l-0.418-0.084
			c-0.583-0.073-1.174-0.17-1.765-0.278l-0.204-0.036l0.109-0.194l0.379-0.671l0.271-0.736c0.14-0.512,0.302-1.026,0.476-1.534
			l0.016-0.044l0.045,0.023c0.303,0.155,0.613,0.303,0.925,0.444l0.995,0.269l1.02,0.156c0.343,0.019,0.687,0.031,1.028,0.04
			l0.083,0.002l-0.016,0.09l-0.17,0.977c-0.056,0.327-0.069,0.667-0.07,1.012c-0.01,0.346-0.006,0.706,0,1.074
			c-0.025,0.367-0.081,0.742-0.163,1.111l-0.099,0.443l-0.771,0.063c-0.432,0.035-0.866,0.019-1.291-0.056
			c-0.418-0.102-0.828-0.238-1.22-0.427c-0.386-0.206-0.753-0.45-1.114-0.679c-0.353-0.258-0.699-0.497-1.059-0.691l-0.1-0.055
			l0.034-0.071c0.347-0.712,0.538-1.466,0.562-2.265c0.03-0.796-0.063-1.626,0.04-2.403l0.084-0.648l0.94,0.056
			c0.397,0.024,0.779,0.099,1.157,0.197c0.376,0.104,0.748,0.228,1.117,0.384c0.755,0.266,1.497,0.644,2.259,0.954l0.062,0.021
			l0.009,0.008l0.069,0.059l0.03,0.079l-0.104-0.083c-0.029-0.013-0.089-0.017-0.136,0.011c-0.046,0.026-0.063,0.073-0.056,0.06
			l0.004,0.001c0.013-0.026,0.05-0.073,0.084-0.093c0.032-0.041,0.21-0.018,0.237,0.05l0.014,0.02
			c0.02,0.051,0.021,0.127-0.001,0.177c0.004-0.015,0-0.033-0.012-0.045l-0.055-0.088l0.017,0.02l-0.009-0.007
			c0.012-0.003,0,0.014,0.032,0.021l0.097,0.021h0.009l0.015,0.003l0.049,0.013c-0.017-0.01-0.037,0-0.05,0.008
			c-0.003,0.01,0.016-0.012,0.068-0.026l0.09,0.074c0.002-0.012-0.007-0.027-0.019-0.032l-0.041-0.021
			c0.071,0.021,0.108,0.075,0.139,0.125l0.003,0.005l0.001,0.001l0.014,0.054l0.001,0.002v0.005l0.007,0.012
			c0,0.046-0.012,0.055-0.007,0.052l-0.006,0.002c0.001-0.005,0.021-0.019,0.054-0.018l0.006,0.023c0,0.002-0.005,0.006,0.006,0.016
			c0.009,0.008,0.025,0.022,0.012,0.055v-0.023l0.013,0.01l0.005,0.003l0.165,0.111l0.187,0.053l0.19-0.008l0.174-0.066l0.063,0.124
			l-0.221,0.055c-0.075-0.003-0.149-0.011-0.222-0.018l-0.202-0.084l-0.163-0.14l0.004,0.003l-0.019-0.02v-0.023
			c-0.004,0.005,0.004-0.001-0.007-0.014c-0.011-0.011-0.02-0.029-0.004-0.053l0.006,0.024c-0.003-0.002-0.011-0.003-0.026,0.021
			l-0.001,0.001h-0.005c-0.068,0.003-0.047-0.078-0.06-0.072l0.006,0.013l-0.012-0.016l0.001,0.002l-0.039-0.051l0.004,0.006
			c-0.033-0.021-0.059-0.037-0.086-0.029l-0.018,0.005l-0.023-0.025c-0.016-0.017-0.028-0.045-0.03-0.069l0.091,0.075
			c0.024-0.003,0.021-0.002-0.009,0.023c-0.038,0.028-0.089,0.026-0.134,0.009l0.047,0.013l-0.015,0.003h0.008l-0.129,0.024
			c-0.043,0.01-0.125-0.011-0.186-0.032l-0.011-0.008h-0.005l-0.045-0.007l-0.01-0.08c-0.005-0.038-0.002-0.083,0.009-0.123
			c-0.018,0.021-0.014,0.072,0.008,0.096l0.015,0.021c0.012,0.02,0.046,0.051,0.095,0.057c0.047,0.008,0.088-0.018,0.1-0.024
			c0.025-0.007,0.053-0.041,0.059-0.054l-0.017,0.046c0.005-0.005-0.021,0.044-0.074,0.074c-0.053,0.032-0.118,0.032-0.154,0.023
			l-0.015-0.003l-0.091-0.08l-0.03-0.026l0.07,0.059l-0.011-0.003l0.061,0.02c-0.819,0.045-1.659,0.163-2.485,0.158
			c-0.414-0.021-0.824-0.073-1.229-0.146c-0.405-0.076-0.806-0.179-1.188-0.331l1.023-0.592c-0.334,0.715-0.862,1.378-1.267,2.074
			c-0.414,0.693-0.658,1.433-0.748,2.214l-0.064-0.126c0.404,0.063,0.818,0.084,1.229,0.085c0.416-0.021,0.827-0.063,1.22-0.063
			c0.4-0.037,0.781-0.032,1.155,0.015c0.375,0.014,0.741,0.073,1.109,0.189l-0.869,0.505c0.171-0.24,0.378-0.473,0.597-0.719
			c0.197-0.265,0.398-0.535,0.575-0.823c0.16-0.296,0.309-0.598,0.413-0.911l0.313-0.946l0.067,0.092
			c-0.69-0.073-1.373-0.168-2.055-0.289l-0.999-0.277c-0.318-0.131-0.629-0.286-0.952-0.419l0.062-0.021
			c-0.134,0.514-0.249,1.031-0.349,1.561c-0.073,0.262-0.142,0.526-0.229,0.784l-0.379,0.74l-0.095-0.231
			c0.578,0.081,1.16,0.153,1.756,0.203l0.457,0.073c0.148,0.028,0.311,0.04,0.451,0.083l0.854,0.249L524.406,66.851z"/>
	</g>
	<g>
		<path  fill="#FFFFFF" d="M508.801,50.68l1.186-2.367c0.204-0.394,0.296-0.801,0.45-1.201l0.425-1.207
			c0.245-0.846,0.473-1.692,0.729-2.541l0.822-2.543l0.17-0.524l0.438,0.374l0.875,0.75c0.313,0.227,0.638,0.437,0.954,0.657
			c0.333,0.197,0.681,0.376,1.017,0.573l1.058,0.519l2.178,0.969c0.729,0.331,1.446,0.685,2.15,1.064l0.11,0.059l-0.078,0.099
			c-0.314,0.399-0.629,0.803-0.922,1.221c-0.26,0.439-0.53,0.875-0.78,1.319l-0.657,1.389l-0.563,1.429
			c-0.334,0.969-0.634,1.949-0.891,2.941c-0.224,1-0.427,2.004-0.573,3.017l-0.029,0.21l-0.223-0.075l-2.796-0.952
			c-0.939-0.305-1.91-0.546-2.913-0.721c-1.001-0.205-2.033-0.399-3.091-0.583c-1.029-0.284-2.088-0.613-3.1-1.047l-1.104-0.474
			l0.167-1.856c0.114-1.267,0.359-2.525,0.739-3.735c0.229-0.59,0.477-1.174,0.761-1.741c0.275-0.571,0.578-1.131,0.909-1.672
			c0.729-1.055,1.542-2.054,2.311-3.043c0.86-0.946,1.657-1.896,2.354-2.886l0.161-0.229l0.176,0.112
			c0.989,0.634,2.015,1.176,3.085,1.618c1.068,0.447,2.184,0.794,3.341,1.058c2.312,0.519,4.737,0.724,6.935,1.409l1.617,0.505
			l-0.521,2.239c-0.269,1.155-0.653,2.255-1.104,3.332c-0.451,1.077-0.963,2.131-1.543,3.169c-0.531,1.065-1.112,2.119-1.724,3.168
			c-0.604,1.052-1.22,2.104-1.802,3.172l-0.099,0.183l-0.078,0.073l-0.056,0.051l-0.025,0.008c-0.092,0.03-0.186,0.055-0.275,0.076
			l0.275-0.242c0.086-0.11,0.017-0.37-0.015-0.389c-0.021-0.054-0.109-0.122-0.097-0.107c-0.004-0.001-0.021-0.01-0.015-0.002
			l0.025,0.025l0.071,0.059c0.021,0.013,0.124,0.13,0.147,0.208c0.023,0.063,0.038,0.185,0.011,0.282
			c-0.014,0.049-0.034,0.093-0.057,0.128l-0.031,0.038c-0.044,0.048-0.099,0.091-0.152,0.122l-0.049,0.027l-0.024,0.005
			c-0.054,0.013-0.113,0.019-0.174,0.015c-0.053-0.002-0.134-0.022-0.147-0.032l-0.107-0.06c-0.017-0.013-0.021-0.02-0.033-0.029
			c-0.02-0.012,0.023,0.01,0.055,0.013c0.03,0.005,0.063,0.003,0.093-0.005l0.164-0.06c0.017-0.013,0.029-0.028,0.04-0.046
			l-0.023,0.023c0.004,0.009-0.014-0.025-0.034,0.021c-0.021,0.027-0.044,0.061-0.061,0.112c-0.02,0.046-0.039,0.095-0.053,0.15
			l-0.049,0.179l-0.052,0.125c0.029-0.032,0.012-0.085-0.005-0.111c-0.015-0.012,0.008,0.025,0.01,0.036
			c0.011,0.021,0.042,0.104,0.046,0.154l-0.205,0.209c0.036,0.01,0.103-0.031,0.105-0.075l0.024-0.05
			c-0.058,0.079-0.093,0.18-0.176,0.221c-0.077,0.047-0.156,0.087-0.23,0.122l-0.01,0.004l-0.005,0.002l-0.1,0.015
			c-0.038,0.008-0.058,0.006-0.095,0.016l-0.028,0.008c-0.058-0.008-0.098-0.021-0.127-0.03c-0.029-0.006-0.019-0.007-0.03,0.001
			l-0.003-0.016c0.005,0.01,0.008,0.023,0.032,0.046c0.034,0.054,0.008,0.081,0,0.113l-0.014,0.064l-0.046-0.06
			c-0.013-0.016-0.02-0.015-0.057,0.007c-0.017,0.016-0.091,0.077-0.156,0.013l0.061,0.011l-0.002,0.002
			c-0.155,0.125-0.313,0.283-0.423,0.441c-0.114,0.166-0.201,0.35-0.263,0.539c-0.056,0.191-0.076,0.389-0.075,0.584
			c0.013,0.195,0.056,0.384,0.12,0.563l-0.327,0.111c-0.059-0.226-0.084-0.452-0.075-0.681c0.021-0.227,0.067-0.446,0.15-0.653
			c0.091-0.205,0.204-0.395,0.349-0.563c0.15-0.174,0.307-0.299,0.494-0.422l0.003-0.001l0.117-0.057l-0.058,0.066
			c-0.01,0.012,0.008,0.008,0.048-0.015c0.021-0.023,0.111-0.051,0.149,0.008l-0.061,0.005c0.006-0.015,0.01-0.036,0.007-0.026
			c-0.018-0.008-0.045-0.033-0.063-0.069l-0.003-0.005v-0.01c0.001-0.082,0.07-0.127,0.131-0.122c0.048,0,0.086-0.004,0.105-0.007
			l-0.027,0.008l0.101-0.057l0.1-0.052l-0.016,0.005l0.108-0.116c0.04-0.031,0.021-0.094,0.04-0.127l0.025-0.051
			c0.041-0.052,0.146-0.103,0.22-0.101l-0.205,0.209c-0.016,0.009,0.005,0.049-0.008,0.031c-0.021-0.028-0.031-0.025-0.059-0.08
			c-0.063-0.115-0.038-0.25,0.03-0.364l-0.052,0.124l-0.014-0.182c-0.007-0.064-0.004-0.137,0-0.208
			c-0.002-0.068,0.013-0.15,0.032-0.236c0.006-0.074,0.078-0.198,0.144-0.293l-0.022,0.023c0.03-0.036,0.066-0.072,0.105-0.103
			l0.065-0.053l0.099-0.007c0.048-0.004,0.101,0,0.15,0.01c0.05,0.009,0.112,0.034,0.109,0.033c0.024,0.009,0.055,0.021,0.074,0.026
			l0.001-0.009c0.003,0-0.058-0.025-0.09-0.024c-0.039-0.003-0.08,0.005-0.113,0.019l-0.073,0.033
			c-0.035,0.015-0.069,0.041-0.095,0.072l-0.019,0.025c-0.021,0.029-0.04,0.067-0.053,0.11c-0.026,0.084-0.01,0.192,0.014,0.243
			c0.008,0.061,0.1,0.152,0.1,0.152c0.001,0.006,0.011,0.015,0.008,0.017l-0.037-0.015c-0.014-0.006-0.053-0.029-0.077-0.045
			c-0.009,0.002-0.108-0.09-0.146-0.162c-0.05-0.037-0.104-0.327-0.021-0.46l0.275-0.243c0.02-0.021,0.038-0.041,0.057-0.054
			l-0.08,0.059l-0.029,0.018l-0.1,0.182c0.146-1.207,0.255-2.429,0.377-3.652c0.12-1.226,0.253-2.45,0.464-3.654
			c0.272-1.193,0.613-2.37,1.017-3.524c0.4-1.153,0.869-2.285,1.453-3.36l1.096,2.743c-2.015-1.236-3.8-2.954-5.701-4.358
			c-0.948-0.697-1.94-1.31-2.979-1.821c-1.037-0.516-2.119-0.933-3.236-1.259l0.337-0.115c-0.393,1.146-0.684,2.332-0.912,3.521
			c-0.173,1.214-0.291,2.424-0.501,3.574c-0.128,1.18-0.328,2.308-0.643,3.396c-0.217,1.11-0.539,2.181-1.011,3.239l-0.938-2.331
			c0.339,0.289,0.665,0.604,0.99,0.938c0.327,0.332,0.64,0.698,0.981,1.04l1.104,0.978c0.381,0.312,0.751,0.651,1.152,0.945
			c0.817,0.574,1.669,1.083,2.55,1.527l2.667,1.293l-0.252,0.134c0.137-0.499,0.236-1.003,0.366-1.502
			c0.139-0.497,0.268-0.995,0.412-1.487c0.271-0.993,0.589-1.972,0.933-2.941l0.567-1.436l0.661-1.396
			c0.242-0.454,0.507-0.897,0.759-1.347c0.289-0.428,0.603-0.839,0.89-1.271l0.03,0.157c-0.721-0.328-1.447-0.636-2.195-0.9
			c-0.749-0.263-1.5-0.527-2.249-0.813l-1.116-0.466c-0.363-0.181-0.728-0.362-1.085-0.557c-0.344-0.22-0.695-0.431-1.034-0.661
			l-0.964-0.77l0.605-0.151l-0.72,2.521c-0.227,0.849-0.429,1.713-0.646,2.569l-0.408,1.307c-0.148,0.427-0.25,0.891-0.439,1.288
			l-1.103,2.405L508.801,50.68z"/>
	</g>
</g>
</svg>
