<?xml version="1.0" encoding="utf-8"?>
<!-- Generator: Adobe Illustrator 16.0.0, SVG Export Plug-In . SVG Version: 6.00 Build 0)  -->
<!DOCTYPE svg PUBLIC "-//W3C//DTD SVG 1.1//EN" "http://www.w3.org/Graphics/SVG/1.1/DTD/svg11.dtd">
<svg version="1.1" id="Слой_1" xmlns="http://www.w3.org/2000/svg" xmlns:xlink="http://www.w3.org/1999/xlink" x="0px" y="0px"
	 width="595.281px" height="841.891px" viewBox="0 0 595.281 841.891" enable-background="new 0 0 595.281 841.891"
	 xml:space="preserve">
<g id="Слой_3">
	<g opacity="0.15">
		<path fill="#FF33FF" d="M392.555,432.353c-6.595,1.313-13.747,2.041-19.815,3.186c-10.662,2.013-22.94,0.884-33.771,0.959
			c-23.345,0.162-46.688-0.457-70.036-0.133c-24.149,0.336-47.796,6.422-71.557,10.447c-12.781,2.166-25.731,4.697-38.686,4.494
			c-8.785-0.139-17.265-2.158-25.772-4.146c-6.177-1.444-17.648-1.571-22.449-5.887c-4.914-4.416-3.582-7.197-10.588-10.191
			c-6.941-2.963-10.652-5.085-15.255-11.29c-4.02-5.429-7.378-9.889-13.623-12.863c-6.001-2.857-10.846-1.549-14.786-7.564
			c-2.126-3.25-0.698-6.817-4.432-9.51c-4.063-2.929-10.44-1.027-15.053-2.726c-25.373-9.351,14.956-65.228,25-74.354
			c20.057-18.213,44.315-29.614,61.664-51.01c18.537-22.861,30.674-50.517,52.11-71.091c7.958-7.636,18.504-5.813,28.032-9.825
			c16.28-6.858,34.686-7.987,52.185-8.701c24.918-1.019,52.786-2.683,76.131,7.895c13.7,6.208,29.269,4.771,43.266,9.852
			c27.256,9.9,44.506,34.854,65.702,53.169c6.598,5.701,13.641,10.862,20.676,15.999c14.545,10.612,27.494,22.355,41.249,33.87
			c11.607,9.72,27.323,20.944,30.11,36.836c1.543,8.801-0.559,16.876-4.556,24.624c-1.035,2.006-0.848,2.697-2.056,4.081
			c-0.757,0.869-2.805,1.66-3.794,2.529c-2.165,1.902-3.638,4.692-5.254,7.043c-9.988,14.53-21.07,18.999-38.286,17.231
			c-6.313-0.646-14.24,0.438-19.728,3.854c-4.476,2.782-6.733,8.114-11.418,10.618c-5.253,2.811-7.235-0.733-11.954,0.751
			c-4.287,1.354-9.976,10.368-13.596,13.5c-6.083,5.259-14.884,14.159-22.678,16.614
			C397.344,431.306,394.987,431.868,392.555,432.353z"/>
		<path fill="#FF33FF" d="M210.51,516.749c15.936,0.9,25.936,2.4,40.066,10.136c6.308,3.448,12.961-0.289,19.062,1.959
			c3.206,1.18,6.347,6.871,8.72,7.135c3.1,0.338,3.966-3.939,6.316-4.75c3.539-1.221,4.06,1.072,6.917,0.691
			c6.292-0.839,18.05-0.994,24.354,0.465c6.956,1.617,13.211,6.17,20.626,4.635c5.72-1.182,8.95-7.635,14.99-8.162
			c-7.541-4.072-12.356-14.162-14.771-22.115c-3.581-11.805-4.967-14.633-14.335-22.28c-2.857-2.332-4.529-6.414-7.232-8.287
			c-5.121-3.543-7.002,0.549-7.432-6.992c-0.527-9.363,10.336-11.166,14.356-17.656c4.614-7.44,5.303-16.029,8.154-24.089
			c2.215-6.271,5.566-11.282,5.783-18.229c0.334-10.801-7.945-28.191-19.761-30.531c-7.742-1.533-16.904,1.691-25.142,0.336
			c-9.665-1.588-20.52-4.19-29.924-0.068c-12.644,5.538-15.549,20.192-19.719,31.963c-1.701,4.795-3.844,9.588-2.796,14.783
			c1.229,6.094,7.27,9.267,8.861,14.949c5.035,17.975-15.299,10.906-21.591,18.703c-10.472,12.961,9.74,14.793,12.034,21.979
			c3.211,10.054-16.71,10.547-22.28,11.279c-5.557,0.725-11.212,0.529-15.197,4.75c-1.055,1.119-7.973,16.977-11.327,13.793
			C194.42,516.056,203.394,516.345,210.51,516.749z"/>
		<path fill="#FF33FF" d="M255.891,585.513c-0.236,3.254-0.531,6.488-0.884,9.69c-1.602,14.556-3.372,29.08-4.321,43.906
			c-0.734,11.5,2.289,23.342,0.13,34.773c-1.183,6.266-2.813,9.963-2.298,16.521c0.528,6.74,2.227,13.262-2.569,19.004
			c-6.175,7.4-33.455,14.347-42.677,16.078c-9.178,1.726-18.898,0.713-26.05,7.717c-4.695,4.601-3.973,11.341-10.532,14.224
			c6.32,0.084,10.769-3.896,16.387-6.484c9.238-4.254,18.021-3.721,27.804-6.176c34.253-8.594,61.565-14.119,97.914-10.142
			c11.224,1.232,22.236,6.023,33.303,9.763c15.466,5.229,47.587,11.391,57.977-6.736c-5.467-1.192-10.938,2.23-16.635,2.229
			c-12.915-0.004-29.232-11.076-39.335-18.32c-14.541-10.418-43.511,7.553-48.416-18.328c-2.271-12-3.237-21.703-3.237-34.086
			c0-29.178,0.66-58.334,0.831-87.51c0.052-9.203-0.266-18.396-0.299-27.601c-0.046-9.297,0.342-15.688,1.422-24.737
			c0.981-8.232,2.523-10.604,0.942-19.33c-0.959-5.285-2.138-11.558-4.046-15.734c-4.766-10.453-11.689-1.258-17.418-4.945
			c-3.414-2.196-5.329-8.686-9.341-7.186c-2.315,0.863-4.467,2.953-6.144,6.408c-2.707,5.572-6.352,13.776-7.452,21.563
			c-1.039,7.34,0.791,13.916,2.005,20.658C256.664,541.29,257.46,563.847,255.891,585.513z"/>
		<path fill="#FFFFFF" d="M286.689,443.252c0,7.905-6.41,14.313-14.313,14.313s-14.311-6.408-14.311-14.313
			c0-7.902,6.408-14.314,14.311-14.314S286.689,435.349,286.689,443.252z"/>
		<circle cx="264.313" cy="438.345" r="4.121"/>
		<path fill="#FFFFFF" d="M312.834,444.685c0,5.781-4.687,10.461-10.462,10.461c-5.778,0-10.463-4.68-10.463-10.461
			c0-5.777,4.685-10.459,10.463-10.459C308.148,434.226,312.834,438.907,312.834,444.685z"/>
		<circle cx="309.61" cy="451.82" r="2.855"/>
		<path d="M257.031,417.921c-0.625,1.472-2.272-0.051-5.079-0.112c-2.806-0.05-5.702,1.379-5.083-0.093
			c0.625-1.474,3.404-2.629,6.208-2.571C255.883,415.203,257.656,416.44,257.031,417.921z"/>
		<path fill="#FFFFFF" d="M251.42,473.406c-0.886-1.356-1.23-1.653-2.939-1.479c-0.886,0.09-1.492,0.248-2.383,0.301
			c-0.839,0.051-1.958-0.209-2.72,0.209c-0.982,0.535-2.282,3.836-2.282,3.836s3.625,1.74,6.438,1.604
			c4.504-0.214,6.441-1.943,6.441-1.943S252,474.288,251.42,473.406z"/>
		<path d="M309.739,422.153c0.619,1.472,2.271-0.049,5.071-0.109c2.81-0.052,5.707,1.378,5.087-0.095
			c-0.624-1.474-3.405-2.63-6.211-2.572C310.882,419.435,309.112,420.673,309.739,422.153z"/>
	</g>
</g>
</svg>
