<?xml version="1.0" encoding="utf-8"?>
<!-- Generator: Adobe Illustrator 16.0.0, SVG Export Plug-In . SVG Version: 6.00 Build 0)  -->
<!DOCTYPE svg PUBLIC "-//W3C//DTD SVG 1.1//EN" "http://www.w3.org/Graphics/SVG/1.1/DTD/svg11.dtd">
<svg version="1.1" xmlns="http://www.w3.org/2000/svg" xmlns:xlink="http://www.w3.org/1999/xlink" x="0px" y="0px"
	 width="595.281px" height="841.891px" viewBox="0 0 595.281 841.891" enable-background="new 0 0 595.281 841.891"
	 xml:space="preserve">
<g id="Слой_2">
</g>
<g id="Слой_1">
	<g>
		<g>
			<polygon fill="#FFFFFF" points="502.586,12.387 502.583,13.84 504.586,15.289 502.594,16.747 504.606,18.18 502.623,19.658 
				504.644,21.084 502.669,22.575 504.697,23.993 502.73,25.496 504.767,26.902 502.808,28.414 504.852,29.808 502.901,31.326 
				504.954,32.705 503.015,34.238 505.079,35.6 503.156,37.157 505.237,38.49 503.345,40.084 505.478,41.315 503.814,41.49 
				504.109,41.335 506.4,40.587 504.8,38.77 507.066,37.921 505.434,36.134 507.689,35.255 506.04,33.484 508.29,32.591 
				506.63,30.828 508.874,29.921 507.206,28.167 509.445,27.247 507.77,25.499 510.005,24.571 508.32,22.83 510.553,21.883 
				508.861,20.142 511.089,19.182 509.388,17.456 511.608,16.494 511.858,15.163 509.645,16.146 511.367,17.861 509.159,18.867 
				510.895,20.568 508.691,21.596 510.436,23.29 508.238,24.333 509.993,26.02 507.801,27.075 509.564,28.751 507.379,29.818 
				509.151,31.483 506.973,32.559 508.758,34.209 506.586,35.302 508.385,36.942 506.226,38.061 508.046,39.67 505.912,40.831 
				507.802,42.341 506.17,42.036 506.501,41.906 508.91,41.503 507.67,39.389 510.07,38.898 508.796,36.804 511.191,36.286 
				509.9,34.204 512.292,33.671 510.989,31.594 513.379,31.046 512.066,28.979 514.454,28.42 513.133,26.353 515.519,25.785 
				514.189,23.723 516.574,23.141 515.237,21.082 517.622,20.482 516.274,18.429 518.651,17.828 519.153,16.517 516.767,17.172 
				518.122,19.257 515.732,19.946 517.103,22.017 514.718,22.718 516.095,24.791 513.713,25.506 515.1,27.573 512.72,28.302 
				514.115,30.363 511.74,31.103 513.146,33.155 510.775,33.903 512.194,35.944 509.827,36.711 511.259,38.746 508.897,39.532 
				510.354,41.543 508.006,42.368 509.524,44.325 507.774,44.15 508.251,43.789 510.699,43.777 509.838,41.48 512.29,41.403 
				511.399,39.115 513.851,39.017 512.944,36.737 515.396,36.624 514.479,34.346 516.932,34.22 516.005,31.949 518.457,31.814 
				517.525,29.541 519.977,29.398 519.038,27.127 521.49,26.97 520.543,24.702 522.994,24.537 522.039,22.27 524.489,22.095 
				523.519,19.839 522.834,20.976 523.88,23.129 521.488,23.246 522.546,25.397 520.154,25.534 521.226,27.68 518.832,27.835 
				519.918,29.974 517.524,30.147 518.623,32.279 516.231,32.465 517.346,34.589 514.957,34.79 516.089,36.902 513.701,37.125 
				514.853,39.231 512.469,39.487 513.661,41.56 511.286,41.876 512.614,43.842 511.39,42.705 511.505,43.015 513.813,43.615 
				513.37,41.254 515.725,41.726 515.229,39.376 517.589,39.817 517.067,37.473 519.432,37.892 518.896,35.551 521.266,35.953 
				520.714,33.616 523.085,34.006 522.524,31.668 524.896,32.048 524.324,29.713 526.701,30.075 526.121,27.74 528.504,28.087 
				527.908,25.755 530.288,26.093 531.171,25.095 528.766,24.802 529.373,27.151 526.967,26.874 527.589,29.217 525.178,28.961 
				525.814,31.302 523.398,31.063 524.046,33.403 521.63,33.177 522.291,35.512 519.873,35.302 520.55,37.631 518.134,37.432 
				518.827,39.756 516.407,39.577 517.119,41.897 514.697,41.746 515.448,44.05 513.026,43.949 513.893,46.199 512.662,45.088 
				512.932,45.213 515.146,46.158 515.129,43.74 517.39,44.593 517.331,42.177 519.6,43.004 519.518,40.589 521.796,41.398 
				521.7,38.982 523.984,39.777 523.875,37.363 526.162,38.147 526.047,35.73 528.336,36.505 528.208,34.089 530.506,34.849 
				530.369,32.433 532.676,33.178 532.527,30.761 534.83,31.5 535.899,30.658 533.571,29.951 533.736,32.38 531.405,31.689 
				531.589,34.115 529.25,33.441 529.443,35.868 527.097,35.21 527.302,37.638 524.952,36.992 525.171,39.42 522.817,38.786 
				523.051,41.211 520.697,40.589 520.947,43.01 518.586,42.407 518.853,44.829 516.486,44.251 516.791,46.663 514.416,46.13 
				514.828,48.518 513.684,47.285 514.103,47.346 516.175,48.627 516.615,46.223 518.737,47.435 519.141,45.024 521.273,46.214 
				521.656,43.801 523.8,44.976 524.171,42.561 526.32,43.724 526.68,41.307 528.835,42.462 529.189,40.041 531.348,41.187 
				531.692,38.765 533.861,39.899 534.195,37.475 536.37,38.599 536.696,36.171 538.873,37.286 540.097,36.637 537.91,35.538 
				537.597,37.98 535.386,36.906 535.089,39.348 532.867,38.289 532.58,40.736 530.349,39.69 530.071,42.139 527.833,41.105 
				527.565,43.556 525.324,42.532 525.071,44.983 522.827,43.969 522.591,46.42 520.338,45.422 520.114,47.877 517.853,46.899 
				517.666,49.352 515.387,48.413 515.292,50.864 514.208,49.521 514.796,49.58 516.682,51.176 517.58,48.869 519.513,50.415 
				520.382,48.097 522.331,49.625 523.183,47.302 525.139,48.818 525.982,46.49 527.946,47.998 528.778,45.666 530.748,47.167 
				531.576,44.831 533.551,46.324 534.372,43.986 536.357,45.469 537.17,43.126 539.16,44.602 539.967,42.255 541.962,43.722 
				542.734,41.377 541.42,41.801 540.729,44.132 538.785,42.669 538.104,45.006 536.147,43.556 535.477,45.899 533.509,44.463 
				532.85,46.81 530.873,45.384 530.228,47.735 528.242,46.321 527.614,48.674 525.623,47.272 525.014,49.628 523.011,48.241 
				522.418,50.605 520.396,49.242 519.847,51.611 517.801,50.292 517.379,52.676 516.96,51.071 517.027,51.35 518.423,53.306 
				519.658,51.228 521.154,53.125 522.346,51.022 523.868,52.899 525.038,50.785 526.575,52.65 527.732,50.528 529.282,52.383 
				530.426,50.255 531.985,52.102 533.124,49.968 534.69,51.807 535.816,49.667 537.4,51.498 538.523,49.352 540.119,51.174 
				541.227,49.022 542.824,50.835 544.178,50.659 542.493,48.866 541.35,51.043 539.662,49.261 538.536,51.444 536.835,49.671 
				535.714,51.86 533.998,50.098 532.886,52.293 531.16,50.538 530.057,52.738 528.323,50.991 527.234,53.197 525.495,51.459 
				524.422,53.67 522.672,51.943 521.607,54.162 519.84,52.45 518.81,54.68 517.012,53 516.066,55.259 515.597,53.61 516,53.88 
				517.152,56.037 518.771,54.195 519.991,56.32 521.583,54.454 522.828,56.568 524.404,54.69 525.66,56.796 527.229,54.91 
				528.497,57.009 530.056,55.116 531.332,57.211 532.889,55.313 534.173,57.402 535.722,55.497 537.021,57.581 538.563,55.67 
				539.869,57.749 541.406,55.83 542.721,57.902 544.19,57.973 542.807,55.908 541.294,57.846 539.944,55.792 538.445,57.739 
				537.086,55.691 535.593,57.645 534.219,55.605 532.732,57.566 531.347,55.531 529.867,57.498 528.474,55.47 527.007,57.445 
				525.606,55.424 524.153,57.406 522.74,55.393 521.294,57.385 519.862,55.384 518.447,57.392 516.981,55.414 515.641,57.465 
				515.452,55.749 515.896,56.109 516.703,58.448 518.665,56.931 519.541,59.251 521.482,57.708 522.382,60.021 524.312,58.464 
				525.224,60.771 527.148,59.204 528.071,61.508 529.987,59.933 530.92,62.233 532.834,60.651 533.776,62.947 535.687,61.359 
				536.642,63.653 538.547,62.056 539.511,64.345 541.412,62.741 542.385,65.025 544.26,63.406 542.916,63.1 541.13,64.749 
				540.214,62.499 538.439,64.161 537.505,61.915 535.737,63.587 534.787,61.347 533.027,63.028 532.064,60.792 530.313,62.483 
				529.34,60.253 527.6,61.954 526.615,59.732 524.892,61.445 523.89,59.229 522.182,60.958 521.148,58.752 519.468,60.505 
				518.394,58.324 516.817,60.157 516.715,60.465 517.136,58.81 517.261,61.184 519.358,60.028 519.623,62.406 521.693,61.201 
				521.993,63.575 524.047,62.347 524.37,64.719 526.417,63.476 526.758,65.846 528.795,64.59 529.15,66.959 531.186,65.693 
				531.551,68.059 533.578,66.782 533.962,69.149 535.988,67.863 536.389,70.228 538.405,68.929 538.816,71.29 540.026,71.811 
				539.556,69.436 537.518,70.746 537.03,68.374 535.001,69.698 534.495,67.327 532.47,68.659 531.949,66.29 529.929,67.632 
				529.396,65.265 527.381,66.616 526.838,64.252 524.832,65.615 524.279,63.255 522.284,64.631 521.713,62.273 519.725,63.662 
				519.131,61.31 517.165,62.726 516.531,60.387 514.635,61.879 515.219,60.275 515.439,60.754 515.344,63.224 517.719,62.509 
				517.71,64.988 520.073,64.234 520.092,66.712 522.446,65.939 522.483,68.418 524.836,67.631 524.888,70.112 527.235,69.314 
				527.298,71.794 529.646,70.988 529.72,73.467 532.064,72.651 532.152,75.133 534.495,74.307 534.604,76.793 536.943,75.955 
				537.052,78.434 538.298,79.259 538.129,76.754 535.784,77.611 535.619,75.12 533.282,75.991 533.107,73.503 530.771,74.383 
				530.582,71.892 528.246,72.78 528.044,70.288 525.71,71.185 525.499,68.695 523.172,69.603 522.953,67.116 520.631,68.037 
				520.396,65.55 518.077,66.482 517.823,63.996 515.522,64.958 515.23,62.475 512.965,63.504 513.524,61.799 513.742,62.369 
				513.185,64.753 515.619,64.438 515.142,66.845 517.572,66.492 517.119,68.905 519.546,68.531 519.112,70.948 521.537,70.561 
				521.117,72.981 523.539,72.582 523.131,75.005 525.555,74.598 525.155,77.022 527.578,76.605 527.193,79.034 529.615,78.607 
				529.242,81.037 531.665,80.602 531.303,83.031 533.699,82.557 532.749,81.654 530.412,82.198 530.81,79.829 528.472,80.386 
				528.854,78.013 526.517,78.582 526.881,76.204 524.548,76.785 524.898,74.405 522.567,74.999 522.905,72.618 520.58,73.227 
				520.906,70.846 518.587,71.474 518.893,69.089 516.574,69.734 516.852,67.344 514.553,68.032 514.776,65.641 512.542,66.467 
				513.944,65.486 513.657,65.657 512.587,67.83 515.022,67.978 514.074,70.221 516.51,70.311 515.595,72.569 518.029,72.629 
				517.138,74.898 519.575,74.942 518.697,77.217 521.135,77.244 520.271,79.525 522.712,79.542 521.859,81.825 524.3,81.829 
				523.465,84.124 525.908,84.118 525.09,86.421 527.531,86.397 526.724,88.698 529.135,88.616 528.34,87.53 525.911,87.606 
				526.691,85.303 524.261,85.389 525.025,83.078 522.591,83.176 523.341,80.859 520.907,80.969 521.645,78.647 519.212,78.771 
				519.936,76.445 517.506,76.584 518.218,74.257 515.79,74.414 516.484,72.08 514.055,72.255 514.722,69.911 512.301,70.13 
				512.921,67.778 510.531,68.132 510.376,68.461 511.679,67.382 510.201,69.264 512.551,69.818 511.193,71.81 513.556,72.302 
				512.229,74.315 514.599,74.775 513.293,76.805 515.665,77.247 514.377,79.288 516.752,79.714 515.476,81.761 517.855,82.177 
				516.591,84.232 518.973,84.631 517.724,86.699 520.109,87.089 518.875,89.169 521.264,89.542 520.041,91.624 520.616,92.817 
				521.809,90.698 519.39,90.308 520.558,88.158 518.138,87.784 519.292,85.621 516.867,85.255 518.01,83.084 515.582,82.726 
				516.715,80.55 514.287,80.203 515.41,78.023 512.981,77.689 514.095,75.507 511.665,75.188 512.765,72.996 510.33,72.689 
				511.412,70.489 508.977,70.214 510.023,67.999 507.589,67.82 507.162,67.342 508.862,67.309 507.127,69.006 509.362,69.974 
				507.699,71.753 509.954,72.678 508.313,74.481 510.577,75.381 508.951,77.196 511.222,78.083 509.607,79.909 511.883,80.782 
				510.279,82.618 512.56,83.483 510.964,85.325 513.249,86.179 511.665,88.036 513.956,88.88 512.383,90.744 514.679,91.577 
				513.117,93.45 515.407,94.228 515.055,92.975 512.769,92.246 514.32,90.414 512.026,89.697 513.566,87.852 511.269,87.146 
				512.799,85.29 510.496,84.594 512.015,82.728 509.709,82.046 511.218,80.173 508.908,79.505 510.408,77.627 508.095,76.978 
				509.579,75.089 507.261,74.459 508.723,72.547 506.396,71.957 507.816,70.019 505.475,69.574 507.192,69.432 506.846,69.462 
				504.809,70.776 506.82,72.16 504.854,73.605 506.898,74.939 504.955,76.415 507.015,77.724 505.085,79.219 507.156,80.511 
				505.238,82.021 507.316,83.299 505.407,84.822 507.495,86.093 505.594,87.622 507.688,88.88 505.798,90.432 507.9,91.683 
				506.02,93.248 508.131,94.482 506.261,96.052 506.389,97.448 508.236,95.76 506.1,94.455 507.938,92.753 505.795,91.462 
				507.626,89.753 505.478,88.465 507.303,86.747 505.148,85.464 506.967,83.735 504.809,82.458 506.621,80.724 504.458,79.457 
				506.265,77.72 504.097,76.466 505.895,74.72 503.72,73.476 505.507,71.716 503.322,70.492 505.087,68.708 502.875,67.544 
				502.586,66.927 504.236,67.573 502.014,68.733 503.771,70.532 501.58,71.764 503.364,73.536 501.187,74.794 502.983,76.551 
				500.815,77.821 502.622,79.57 500.461,80.854 502.275,82.592 500.119,83.886 501.942,85.619 499.792,86.925 501.623,88.652 
				499.478,89.97 501.315,91.691 499.178,93.019 501.025,94.728 498.895,96.067 500.758,97.677 500.881,96.247 499.012,94.572 
				501.125,93.216 499.247,91.553 501.354,90.189 499.471,88.53 501.572,87.155 499.683,85.497 501.781,84.112 499.886,82.46 
				501.979,81.068 500.077,79.426 502.164,78.03 500.257,76.398 502.338,74.992 500.42,73.371 502.493,71.947 500.563,70.345 
				502.617,68.894 500.65,67.344 500.629,66.309 502.021,67.459 499.654,68.095 501.079,70.098 498.73,70.823 500.19,72.802 
				497.85,73.556 499.327,75.52 496.992,76.29 498.482,78.247 496.15,79.032 497.651,80.979 495.324,81.776 496.833,83.721 
				494.51,84.528 496.026,86.467 493.706,87.291 495.233,89.223 492.918,90.057 494.454,91.985 492.145,92.832 493.703,94.715 
				494.053,93.417 492.47,91.586 494.749,90.777 493.155,88.956 495.433,88.128 493.831,86.309 496.104,85.47 494.494,83.658 
				496.765,82.807 495.146,81.004 497.412,80.144 495.784,78.35 498.044,77.482 496.405,75.7 498.661,74.816 497.011,73.041 
				499.258,72.134 497.584,70.388 499.814,69.444 498.074,67.777 497.84,67.609 499.35,68.285 496.938,68.373 497.979,70.566 
				495.564,70.783 496.654,72.95 494.242,73.203 495.358,75.357 492.947,75.634 494.078,77.78 491.669,78.074 492.813,80.213 
				490.406,80.523 491.562,82.658 489.157,82.979 490.324,85.109 487.919,85.45 489.096,87.579 486.689,87.939 487.883,90.056 
				485.484,90.425 486.703,92.511 487.269,91.317 486.021,89.264 488.397,88.899 487.141,86.85 489.515,86.469 488.247,84.424 
				490.621,84.028 489.344,81.988 491.715,81.578 490.428,79.545 492.797,79.123 491.497,77.099 493.862,76.667 492.548,74.656 
				494.91,74.205 493.581,72.198 495.939,71.72 494.579,69.743 496.924,69.219 495.458,67.337 496.851,68.371 496.544,68.179 
				494.132,67.844 494.725,70.225 492.281,70.033 492.932,72.398 490.486,72.244 491.166,74.599 488.718,74.471 489.416,76.822 
				486.965,76.713 487.68,79.058 485.228,78.965 485.953,81.31 483.503,81.23 484.244,83.569 481.788,83.509 482.538,85.851 
				480.08,85.809 480.848,88.142 478.396,88.113 477.592,89.226 480.025,89.261 479.232,86.927 481.694,86.909 480.887,84.582 
				483.353,84.547 482.535,82.219 485.002,82.17 484.176,79.845 486.644,79.783 485.807,77.462 488.272,77.391 487.424,75.075 
				489.888,74.994 489.023,72.685 491.488,72.587 490.611,70.281 493.076,70.159 492.167,67.87 494.627,67.711 493.629,65.468 
				493.49,65.183 494.787,66.218 492.558,65.386 492.783,67.774 490.488,67.083 490.779,69.46 488.475,68.806 488.793,71.182 
				486.479,70.553 486.816,72.927 484.496,72.317 484.851,74.688 482.526,74.093 482.893,76.464 480.566,75.882 480.947,78.252 
				478.612,77.688 479.003,80.059 476.662,79.513 477.072,81.88 474.733,81.346 473.779,82.264 476.157,82.745 475.747,80.352 
				478.127,80.82 477.702,78.43 480.09,78.881 479.658,76.49 482.048,76.93 481.609,74.538 484.001,74.968 483.552,72.579 
				485.945,72.999 485.483,70.614 487.877,71.025 487.401,68.643 489.801,69.039 489.313,66.656 491.714,67.034 491.198,64.661 
				493.603,65.003 493.006,62.658 492.974,62.341 493.848,63.755 491.7,62.63 491.478,65.054 489.275,64.02 489.1,66.448 
				486.885,65.442 486.735,67.87 484.511,66.885 484.374,69.314 482.144,68.344 482.023,70.773 479.785,69.815 479.681,72.244 
				477.438,71.297 477.338,73.732 475.086,72.799 474.998,75.236 472.741,74.316 472.664,76.755 470.404,75.848 470.302,78.316 
				471.492,77.521 471.503,75.102 473.754,75.991 473.756,73.57 476.017,74.445 476.011,72.02 478.278,72.883 478.263,70.456 
				480.534,71.309 480.508,68.883 482.782,69.727 482.745,67.302 485.02,68.136 484.967,65.714 487.25,66.531 487.184,64.107 
				489.474,64.906 489.376,62.486 491.676,63.249 491.482,60.843 492.436,62.284 491.964,62.133 489.961,60.678 489.231,63.053 
				487.166,61.676 486.479,64.064 484.394,62.714 483.732,65.108 481.638,63.774 480.99,66.173 478.885,64.851 478.252,67.254 
				476.14,65.944 475.515,68.35 473.396,67.051 472.783,69.462 470.653,68.175 470.052,70.59 467.915,69.314 467.324,71.735 
				465.183,70.472 463.834,71.051 466.011,72.286 466.602,69.845 468.798,71.064 469.372,68.622 471.569,69.832 472.141,67.386 
				474.349,68.585 474.912,66.135 477.128,67.326 477.685,64.873 479.903,66.056 480.45,63.602 482.67,64.778 483.203,62.323 
				485.431,63.488 485.955,61.029 488.19,62.179 488.686,59.719 490.937,60.841 491.368,58.374 492.194,59.849 491.901,59.64 
				490.205,57.862 489.11,60.068 487.351,58.346 486.292,60.571 484.509,58.869 483.471,61.102 481.677,59.413 480.65,61.653 
				478.847,59.974 477.833,62.219 476.02,60.549 475.013,62.8 473.192,61.137 472.193,63.393 470.361,61.74 469.373,64.002 
				467.533,62.359 466.558,64.625 464.708,62.993 463.524,63.292 465.162,64.936 466.109,62.656 467.982,64.264 468.914,61.981 
				470.791,63.581 471.719,61.293 473.607,62.884 474.529,60.592 476.427,62.175 477.342,59.879 479.244,61.455 480.148,59.156 
				482.053,60.726 482.943,58.424 484.857,59.985 485.739,57.676 487.667,59.222 488.52,56.909 490.469,58.43 491.257,56.098 
				491.464,55.835 491.441,57.466 490.082,55.417 488.611,57.396 487.183,55.388 485.742,57.39 484.288,55.398 482.866,57.411 
				481.399,55.429 479.989,57.451 478.511,55.477 477.11,57.506 475.622,55.539 474.227,57.574 472.729,55.614 471.342,57.655 
				469.831,55.702 468.452,57.75 466.933,55.804 465.564,57.86 464.035,55.923 462.708,57.986 464.087,57.917 465.38,55.846 
				466.886,57.765 468.165,55.687 469.686,57.598 470.959,55.513 472.492,57.417 473.761,55.327 475.303,57.224 476.561,55.128 
				478.109,57.018 479.355,54.916 480.911,56.8 482.144,54.692 483.71,56.566 484.935,54.449 486.52,56.31 487.712,54.181 
				489.324,56.016 490.438,53.852 490.715,55.571 490.366,55.223 489.465,52.962 487.689,54.64 486.693,52.41 484.949,54.12 
				483.924,51.903 482.196,53.629 481.155,51.42 479.438,53.157 478.382,50.954 476.675,52.701 475.607,50.503 473.905,52.258 
				472.827,50.066 471.134,51.829 470.039,49.641 468.353,51.413 467.247,49.231 465.565,51.012 464.449,48.838 462.922,50.641 
				464.184,50.815 465.827,49.009 466.964,51.167 468.595,49.351 469.749,51.504 471.376,49.681 472.544,51.828 474.166,49.998 
				475.344,52.14 476.957,50.303 478.144,52.44 479.745,50.595 480.94,52.725 482.528,50.872 483.736,52.995 485.318,51.131 
				486.547,53.244 488.1,51.362 489.36,53.454 490.84,51.522 490.533,53.166 490.483,52.844 489.97,50.45 487.902,51.777 
				487.294,49.397 485.249,50.761 484.611,48.388 482.581,49.771 481.925,47.402 479.902,48.797 479.232,46.432 477.218,47.838 
				476.535,45.476 474.523,46.891 473.83,44.532 471.823,45.956 471.114,43.599 469.113,45.032 468.392,42.68 466.396,44.123 
				465.662,41.776 463.705,43.242 465.034,43.669 466.988,42.192 467.734,44.522 469.677,43.032 470.44,45.361 472.38,43.862 
				473.158,46.187 475.094,44.68 475.884,47.002 477.812,45.486 478.611,47.804 480.529,46.278 481.338,48.591 483.244,47.053 
				484.067,49.361 485.969,47.811 486.815,50.113 488.692,48.539 489.576,50.824 491.381,49.183 491.034,50.868 490.824,50.426 
				490.76,47.982 488.49,48.917 488.324,46.468 486.071,47.444 485.878,44.999 483.635,45.996 483.421,43.551 481.184,44.562 
				480.953,42.117 478.723,43.141 478.479,40.698 476.249,41.729 475.995,39.287 473.771,40.33 473.5,37.887 471.278,38.94 
				470.988,36.494 468.771,37.559 468.478,35.122 467.238,34.454 467.583,36.907 469.831,35.836 470.208,38.296 472.445,37.212 
				472.833,39.67 475.073,38.578 475.475,41.036 477.711,39.937 478.124,42.394 480.356,41.286 480.779,43.742 483.007,42.624 
				483.437,45.076 485.656,43.947 486.101,46.398 488.316,45.257 488.78,47.704 490.977,46.539 491.475,48.981 493.633,47.755 
				493.139,49.443 492.946,48.955 493.281,46.533 490.891,47.074 491.152,44.639 488.77,45.215 489.007,42.777 486.63,43.371 
				486.85,40.929 484.474,41.537 484.682,39.094 482.31,39.713 482.505,37.268 480.133,37.893 480.319,35.448 477.949,36.084 
				478.12,33.635 475.752,34.279 475.913,31.83 473.544,32.484 473.694,30.036 471.285,30.666 472.429,31.579 474.762,30.872 
				474.617,33.301 476.942,32.578 476.817,35.011 479.143,34.28 479.03,36.716 481.355,35.975 481.257,38.412 483.578,37.661 
				483.49,40.099 485.806,39.335 485.728,41.77 488.036,40.992 487.976,43.43 490.283,42.638 490.243,45.077 492.535,44.253 
				492.534,46.691 494.788,45.786 493.751,47.095 493.741,46.684 494.476,44.32 491.995,44.382 492.655,41.99 490.175,42.087 
				490.813,39.69 488.334,39.808 488.953,37.404 486.475,37.534 487.087,35.132 484.607,35.273 485.205,32.863 482.724,33.011 
				483.312,30.597 480.83,30.756 481.403,28.336 478.923,28.504 479.485,26.083 477.003,26.26 477.556,23.839 475.09,24.05 
				475.996,25.086 478.409,24.798 477.834,27.162 480.248,26.862 479.691,29.233 482.107,28.922 481.565,31.297 483.979,30.973 
				483.451,33.352 485.865,33.014 485.351,35.396 487.76,35.043 487.259,37.426 489.663,37.053 489.181,39.44 491.587,39.05 
				491.134,41.445 493.524,41.011 493.121,43.41 495.473,42.844 494.076,43.762 494.338,43.585 495.569,41.479 493.145,41.101 
				494.273,38.925 491.844,38.597 492.944,36.408 490.511,36.106 491.592,33.906 489.156,33.619 490.223,31.409 487.785,31.139 
				488.84,28.925 486.398,28.661 487.443,26.443 485.001,26.194 486.03,23.963 483.585,23.723 484.599,21.484 482.152,21.258 
				483.157,19.019 482.431,17.793 481.479,20.098 483.96,20.344 483.021,22.651 485.504,22.879 484.578,25.196 487.064,25.415 
				486.154,27.74 488.642,27.95 487.743,30.281 490.234,30.482 489.346,32.816 491.835,33.002 490.955,35.336 493.444,35.506 
				492.582,37.85 495.076,38.007 494.233,40.357 496.723,40.477 495.92,42.843 498.405,42.872 497.072,43.915 497.191,43.466 
				498.709,41.505 496.362,40.681 497.821,38.667 495.462,37.877 496.899,35.847 494.535,35.076 495.96,33.038 493.592,32.28 
				495.006,30.232 492.634,29.485 494.039,27.432 491.663,26.69 493.061,24.631 490.681,23.898 492.067,21.829 489.684,21.105 
				491.063,19.03 488.673,18.313 490.041,16.235 487.65,15.537 488.149,16.87 490.519,17.478 489.156,19.51 491.532,20.11 
				490.185,22.157 492.565,22.744 491.23,24.802 493.615,25.376 492.293,27.442 494.681,28.003 493.369,30.074 495.76,30.621 
				494.461,32.698 496.854,33.224 495.57,35.311 497.968,35.815 496.711,37.923 499.114,38.388 497.903,40.518 500.317,40.851 
				498.728,41.308 499.011,41.179 500.895,39.62 498.754,38.411 500.572,36.76 498.409,35.594 500.206,33.917 498.032,32.774 
				499.816,31.084 497.635,29.952 499.407,28.25 497.22,27.133 498.984,25.421 496.791,24.309 498.548,22.592 496.349,21.491 
				498.095,19.758 495.89,18.665 497.626,16.917 495.415,15.834 497.143,14.085 496.893,12.671 495.197,14.541 497.444,15.692 
				495.763,17.573 498.015,18.702 496.346,20.594 498.605,21.715 496.947,23.618 499.214,24.733 497.564,26.647 499.837,27.749 
				498.198,29.672 500.477,30.763 498.848,32.69 501.132,33.763 499.516,35.702 501.808,36.758 500.211,38.716 502.515,39.741 
				500.951,41.726 503.285,42.667 501.754,43.493 501.931,42.802 504.007,41.391 502.07,39.792 504.121,38.342 502.17,36.757 
				504.214,35.292 502.255,33.718 504.293,32.246 502.328,30.677 504.361,29.197 502.393,27.635 504.422,26.149 502.448,24.588 
				504.474,23.095 502.497,21.538 504.518,20.035 502.537,18.483 504.553,16.978 502.567,15.43 504.578,13.918 			"/>
		</g>
		<circle fill="none" stroke="#EFD937" stroke-width="7" stroke-miterlimit="10" cx="503.558" cy="55.599" r="39.18"/>
	</g>
</g>
</svg>
