<?xml version="1.0" encoding="utf-8"?>
<!-- Generator: Adobe Illustrator 16.0.0, SVG Export Plug-In . SVG Version: 6.00 Build 0)  -->
<!DOCTYPE svg PUBLIC "-//W3C//DTD SVG 1.1//EN" "http://www.w3.org/Graphics/SVG/1.1/DTD/svg11.dtd">
<svg version="1.1" id="Слой_4" xmlns="http://www.w3.org/2000/svg" xmlns:xlink="http://www.w3.org/1999/xlink" x="0px" y="0px"
	 width="595.281px" height="841.891px" viewBox="0 0 595.281 841.891" enable-background="new 0 0 595.281 841.891"
	 xml:space="preserve">
<g opacity="0.3">
	<path fill="#DDDDDD" d="M282.46,492.221c-7.978-0.855-15.967-1.801-23.842-3.733c-7.135-1.752-10.243-5.496-16.047-10.114
		c-3.899-3.104-8.848-2.136-11.92,2.235c-3.969,5.65-7.472,13.309-11.215,19.433c-2.368,3.876-1.634,7.777-1.308,12.351
		c0.655,9.163,2.41,18.097,0.16,26.979c-1.785,7.049,8.215-1.978,3.046,0.4c-19.175,8.82-37.348,65.309-25.402,77.827
		c6.648,6.964,17.324,2.644,24.791,7.553c5.801,3.815,9.04,11.919,13.463,17.48c4.697,5.909,7.123,9.768,14.194,9.799
		c6.247,0.028,11.991-2.401,18.316-2.4c9.63,0.003,19.063,0.262,28.645-1.184c11.126-1.679,21.927,3.817,32.991,4.044
		c8.188,0.167,15.192-5.108,22.771-7.202c16.654-4.599,18.192,14.151,27.792,20.958c5.736,4.067,8.058-0.317,12.298-4.03
		c7.068-6.192,15.648-1.742,23.231,0.929c3.581,1.26,8.377,2.928,12.15,1.424c12.418-4.951,22.904,10.502,34.18,9.363
		c7.868-0.796,21.101-15.992,25.557-22.327c5.831-8.288,5.764-6.839,15.187-9.563c15.808-4.569,9.803-21.339,14.654-33.961
		c1.766-4.595,2.321-10.051,3.042-15.05c0.538-3.731,5.364-31.097,0.925-32.299c-2.895-0.781-5.487,1.594-8.296,2.176
		c-3.979,0.824-9.527,0.87-13.402-0.627c-4.748-1.834-6.18-6.442-2.391-11.158c-6.035-0.779-12.145-1.411-18.043-3.313
		c-9.703-3.131-19.464-9.726-28.691-15.252c-6.246-3.737-12.033-8.788-18.338-12.044c-5.972-3.088-12.136-1.989-18.459-2.571
		c-8.041-0.74-15.711-3.099-23.616-4.869c-3.917-0.878-7.08,3.397-10.469,1.539c-1.714-0.939-3.851-4.862-5.624-6.309
		c-3.161-2.577-6.768-4.247-10.405-5.256c-9.901-2.748-20.546-2.563-30.615-2.565c-7.792-0.003-15.346,0.276-23.041-1.405
		C299.829,497.531,291.538,493.197,282.46,492.221z"/>
	<path fill="#EFD937" d="M380.201,577.164c-3.664,0.284-7.33,0.353-10.989,0.171c-35.06-1.713-74.294-9.691-109.984-14.277
		c-23.569-3.029-47.188,0.805-70.727,2.191c-12.662,0.744-25.525,1.899-38.13-0.179c-13.369-2.202-24.356-9.005-36.878-13.71
		c-13.945-5.241-27.05-12.656-40.651-18.591c-23.908-10.432-40.018-24.371-40.077-51.729c-0.028-13.514-0.923-25.552,3.189-38.728
		c4.17-13.366,11.203-25.683,19.207-37.05c15.79-22.43,35.717-41.351,55.018-60.599c30.599-30.519,65.965-56.174,94.443-88.878
		c27.157-31.188,45.181-71.544,93.179-60.335c43.813,10.235,72.034,47.856,94.863,82.583c20.785,31.614,50.342,53.303,73.159,82.869
		c23.407,30.33,47.303,65.881,57.187,101.689c11.625,42.107-12.396,61.584-48.738,78.838
		C445.688,555.003,412.956,574.642,380.201,577.164z"/>
	<path fill="#EFD937" d="M220.953,624.417c0.641,3.039,1.655,5.92,3.371,8.457c3.841,5.678,9.875,8.608,16.645,7.066
		c2.973-0.677,7.354-3.165,9.284-5.543c3.793-4.673,1.008-5.399-1.974-10.023c-5.283-8.188-9.079-11.13-5.957-20.616
		c2.642-8.024,11.631-23.961,20.82-24.162c6.437-0.142,10.235,1.729,17.087-0.183c6.824-1.902,11.666-2.746,17.812,1.634
		c4.366,3.111,10.208,6.939,15.132,9.079c2.718,1.182,6.754,1.139,8.116,3.602c3.136,5.667,0.244,11.894-2.98,16.777
		c-3.727,5.647-8.575,10.519-11.982,16.386c-2.823,4.861-3.316,9.951,1.729,13.447c2.591,1.794,6.347,3.173,9.516,2.969
		c2.447-0.158,4.328-1.92,6.309-3.182c3.376-2.151,6.669-4.454,10.186-6.368c3.641-1.979,6.107-4.201,8.095-7.891
		c2.393-4.442,2.714-8.864,3.897-13.649c1.341-5.425,6.925-11.836,5.729-17.287c-3.707-0.426-7.266-1.503-10.466-3.467
		c-3.239-1.989-5.17-5.048-8.017-7.502c-2.297-1.98-2.213-5.155-3.025-7.854c-0.967-3.217-3.659-4.777-5.513-7.39
		c-0.602-0.85-1.084-1.8-1.802-2.56c-0.652-0.69-1.04-0.92-1.323-1.839c-0.786-2.547-1.295-5.207-1.631-7.851
		c-0.516-4.054,1.446-7.912-0.226-12.117c-2.688-6.758-13.697-14.72-20.84-14.855c-6.896-0.132-14.304,2.974-21.596,3.015
		c-13.027,0.071-30.569-0.959-35.361,14.573c-0.685,2.22-0.973,4.539-0.975,6.859c-0.008,6.916-7.895,11.179-7.24,18.867
		c0.342,4.007,1.627,8.087,1.026,12.142c-0.701,4.723-5.043,6.273-9.076,7.866c-1.589,0.628-3.374,1.162-5.05,1.46
		c-0.752,0.133-3.104-0.249-3.401,0.683c-0.053,0.164,0.156,1.063,0.16,1.319c0.008,0.512,0.042,1.048,0.008,1.559
		c-0.199,2.976,1.064,5.318,1.515,8.172C219.87,611.809,219.687,618.422,220.953,624.417z"/>
	<path fill="#EFD937" d="M220.573,696.624c14.756-3.447,24.048-15.119,40.351-10.186c8.825,2.672,18.845-0.857,28.114,0.907
		c11.205,2.134,22.746,1.543,33.942,3.779c7.471,1.492,19.994,7.154,22.172-4.177c1.483-7.727-8.706-19.531-15.976-20.702
		c-5.679-0.917-11.807-0.645-17.166-2.372c-8.296-2.672-9.443-10.211-9.471-17.986c-0.014-4.212,1.037-7.639,1.713-11.677
		c0.783-4.681-0.428-9.827-0.762-14.524c-0.183-2.586-0.483-5.778-1.449-8.212c-0.896-2.262-3.136-3.808-4.14-6.049
		c-1.088-2.431-2.16-6.156-1.937-8.827c0.169-2.01,0.698-4.129,0.928-6.173c0.611-5.479,2.571-10.788,4.915-15.732
		c2.971-6.263,1.672-14.642,3.355-21.537c1.319-5.406,3.389-6.965,1.266-12.693c-1.287-3.472-2.869-7.591-5.43-10.335
		c-6.401-6.863-15.693-0.825-23.383-3.248c-4.582-1.441-7.156-5.704-12.541-4.72c-3.109,0.569-5.997,1.942-8.246,4.209
		c-3.636,3.66-8.525,9.05-10.005,14.163c-1.394,4.819,1.063,9.139,2.695,13.566c1.255,3.407,2.231,6.886,3.013,10.431
		c0.574,2.597,2.812,5.728,2.031,8.49c-1.122,3.933-5.375,7.456-7.076,11.363c-2.757,6.328-3.201,13.627-1.72,20.344
		c1.286,5.83,4.246,10.928,5.666,16.703c0.639,2.601,0.776,4.981,0.777,7.715c0.002,10.168-0.781,18.763-6.986,26.855
		c-3.034,3.958-5.698,6.454-10.471,8.114c-4.194,1.457-8.71,2.056-12.726,4.026c-4.746,2.334-6.735,8.064-10.961,11.162
		c-3.898,2.854-9.298,3.758-9.494,9.71c-0.243,7.35,7.855,8.727,13.564,8.396C217.071,697.298,218.873,697.022,220.573,696.624z"/>
	<path fill="#FCF9F4" d="M309.965,505.335c-2.274,6.151-10.825,8.596-19.102,5.463c-8.272-3.134-13.135-10.66-10.86-16.813
		c2.276-6.149,10.826-8.595,19.1-5.461C307.377,491.657,312.241,499.183,309.965,505.335z"/>
	<path d="M312.85,491.115c-0.148,1.701-8.569-0.741-19.138-1.659c-10.568-0.899-19.291,0.074-19.142-1.633
		c0.154-1.709,8.846-2.357,19.418-1.451C304.559,487.286,313.003,489.399,312.85,491.115z"/>
	<path fill="#FCF9F4" d="M252.271,505.335c-2.274,6.151-10.825,8.596-19.101,5.463c-8.273-3.134-13.135-10.66-10.861-16.813
		c2.276-6.149,10.826-8.595,19.1-5.461C249.683,491.657,254.545,499.183,252.271,505.335z"/>
	<ellipse cx="230.155" cy="492.931" rx="3.92" ry="3.968"/>
	<ellipse cx="288.527" cy="492.931" rx="3.92" ry="3.968"/>
	<path d="M254.221,491.093c-0.182,1.878-8.415-0.585-18.795-1.31c-10.379-0.706-18.979,0.601-18.797-1.281
		c0.187-1.885,8.751-2.832,19.134-2.118C246.143,487.103,254.407,489.201,254.221,491.093z"/>
	<g>
		<path d="M258.927,544.466l-0.061-0.04c-0.026-0.017,0.025,0.016,0.046,0.025l0.083,0.035l0.042,0.015l-0.02-0.009l-0.042-0.017
			l-0.103-0.042l-0.163-0.078l-0.043-0.024l-0.105-0.067c-0.069-0.048-0.136-0.103-0.198-0.161
			c-0.125-0.124-0.221-0.222-0.339-0.466c-0.105-0.22-0.156-0.488-0.151-0.701c0.006-0.11,0.022-0.224,0.049-0.334
			c0.024-0.104,0.069-0.231,0.103-0.305l0.06-0.11c0.041-0.073,0.085-0.145,0.132-0.213l0.457-0.664l0.659,0.036l5.083,0.277
			c0.843,0.057,1.688,0.063,2.521,0.186l2.503,0.295l2.498,0.295l1.234,0.145c0.419,0.05,0.823,0.078,1.229,0.106
			c0.828,0.056,1.668,0.092,2.507,0.182c0.419,0.045,0.839,0.098,1.253,0.182c0.416,0.073,0.822,0.204,1.213,0.357l0.01,0.004
			l0.002,0.005l0.067,0.188c-0.011,0.064-0.026,0.128-0.04,0.188c0.005-0.064,0.011-0.126,0.014-0.185l-0.084-0.159l0.012,0.009
			c-0.406-0.096-0.809-0.164-1.223-0.177c-0.411-0.023-0.825-0.016-1.237-0.001c-0.826,0.03-1.653,0.112-2.49,0.176
			c-0.426,0.032-0.855,0.062-1.269,0.072l-1.263,0.033l-2.495,0.063l-2.489,0.064c-0.831-0.004-1.652,0.109-2.475,0.172
			l-4.911,0.434l1.116-0.628c0.023-0.027,0.043-0.057,0.06-0.088l0.023-0.048c0.025-0.051,0.066-0.153,0.083-0.235
			c0.021-0.087,0.03-0.177,0.03-0.264c0.01-0.189-0.033-0.436-0.132-0.632c-0.116-0.218-0.189-0.302-0.296-0.411
			c-0.053-0.051-0.111-0.098-0.171-0.138l-0.118-0.072c-0.031-0.019-0.063-0.035-0.097-0.05l-0.048-0.019l0.014,0.003l0.027,0.006
			l0.014,0.004l0.076,0.027l0.151,0.062l0.112,0.054l0.066,0.031L258.927,544.466z"/>
	</g>
</g>
</svg>
