<?xml version="1.0" encoding="utf-8"?>
<!-- Generator: Adobe Illustrator 16.0.0, SVG Export Plug-In . SVG Version: 6.00 Build 0)  -->
<!DOCTYPE svg PUBLIC "-//W3C//DTD SVG 1.1//EN" "http://www.w3.org/Graphics/SVG/1.1/DTD/svg11.dtd">
<svg version="1.1" id="Слой_1" xmlns="http://www.w3.org/2000/svg" xmlns:xlink="http://www.w3.org/1999/xlink" x="0px" y="0px"
	 width="595.281px" height="841.891px" viewBox="0 0 595.281 841.891" enable-background="new 0 0 595.281 841.891"
	 xml:space="preserve">
<g opacity="0.15">
	<path fill="#33FF33" d="M383.544,578.686c-3.729,0.285-7.461,0.354-11.182,0.172c-35.673-1.724-75.595-9.746-111.907-14.354
		c-23.979-3.046-48.013,0.808-71.964,2.199c-12.882,0.751-25.97,1.912-38.796-0.177c-13.602-2.215-24.781-9.056-37.522-13.785
		c-14.19-5.271-27.522-12.726-41.36-18.69c-24.327-10.488-40.718-24.503-40.778-52.011c-0.029-13.587-0.938-25.688,3.245-38.938
		c4.245-13.438,11.4-25.821,19.542-37.25c16.066-22.551,36.343-41.576,55.981-60.929c31.134-30.686,67.116-56.479,96.094-89.361
		c27.632-31.354,45.971-71.932,94.807-60.66c44.58,10.29,73.296,48.115,96.523,83.03c21.146,31.786,51.222,53.593,74.437,83.319
		c23.815,30.495,48.131,66.237,58.188,102.239c11.825,42.336-12.614,61.919-49.593,79.27
		C450.175,556.404,416.872,576.15,383.544,578.686z"/>
	<path fill="#33FF33" d="M224.976,629.546c3.883-0.313,7.829-0.242,12.003,0.476c5.624,0.967,7.378-0.359,12.806-0.77
		c5.889-0.446,8.166,3.66,13.039,5.089c3.139,0.919,9.271,0.846,12.558,0.317c2.607-0.417,3.398-2.67,6.456-2.288
		c2.097,0.264,2.512,3.497,5.254,3.378c2.842-0.126,3.691-4.096,6.417-4.679c2.218-0.473,3.669,1.231,5.691,1.341
		c2.771,0.149,5.348-1.948,8.053-2.438c2.908-0.523,6.313-0.703,9.275-0.783c9.803-0.265,15.39,4.864,25.446-1.109
		c1.813-1.074,5.796-5.427,7.998-5.025c-4.224-0.767-8.67-4.146-11.469-7.703c-1.468-1.866-1.035-3.854-3.129-5.563
		c-2.465-2.017-4.404-1.07-6.949-2.628c-5.961-3.649-5.906-7.342-6.347-12.296c-0.244-2.72-0.688-5.701-1.468-8.324
		c-0.533-1.795-2.276-5.084-2.435-5.707c-1.459-5.71-0.863-12.405-0.631-18.447c0.2-5.212,2.071-12.869,0.124-17.712
		c-2.717-6.75-13.847-14.701-21.065-14.838c-6.97-0.133-14.456,2.972-21.829,3.013c-13.169,0.07-30.902-0.959-35.746,14.556
		c-3.949,12.657,2.942,26.866-1.471,39.122c-3.761,10.444-16.17,13.853-20.875,23.352c-2.026,4.087-1.767,9.115-3.712,13.384
		c-1.022,2.245-6.112,8.189-9.407,5.425C208.584,632.892,219.187,630.01,224.976,629.546z"/>
	<path fill="#33FF33" d="M254.723,596.902c-0.321,2.137-0.718,4.258-1.196,6.359c-2.172,9.548-4.579,19.076-5.862,28.799
		c-1.215,9.169,0.055,19.357-3.446,28.069c-3.133,7.803-8.402,7.772-15.999,7.835c-8.059,0.062-16.056,2.709-22.402,7.696
		c-2.77,2.18-4.751,5.623-7.735,7.456c-3.77,2.316-8.218,4.247-12.583,5.041c-3.487,0.637-12.331-1.733-15.074,0.204
		c-1.27,0.898-4.661,13.501-3.1,13.83c2.43,0.515,5.049-1.437,7.361-2.064c12.101-3.294,24.462-5.489,36.837-7.472
		c18.86-3.02,37.964-3.938,57.037-4.288c19.295-0.354,38.667-1.229,57.953-0.21c15.229,0.808,30.174,3.95,45.188,6.404
		c3.868,0.631,41.94,3.844,41.767,2.831c-1.713-9.915-13.237-5.726-19.024-8.377c-9.269-4.245-13.391-12.009-24.344-13.781
		c-3.047-0.492-4.602-1.247-7.5-2.724c-2.771-1.413-5.615-2.019-8.146-3.826c-5.457-3.901-12.159-6.301-18.627-7.896
		c-6.457-1.593-11.279-1.164-17.774-1.185c-2.789-0.009-9.385,0.896-11.665-0.366c-4.099-2.271-2.058-9.711-2.058-14.035
		c0-19.142,0.896-38.267,1.129-57.403c0.07-6.038-0.357-12.066-0.409-18.104c-0.053-6.102,0.466-10.291,1.938-16.229
		c1.332-5.399,3.424-6.955,1.275-12.681c-1.301-3.467-2.898-7.581-5.488-10.321c-6.471-6.854-15.861-0.824-23.635-3.244
		c-4.631-1.44-7.234-5.696-12.677-4.712c-3.143,0.564-6.062,1.938-8.335,4.2c-3.674,3.656-8.617,9.041-10.113,14.146
		c-1.409,4.817,1.073,9.13,2.722,13.553C255.774,567.895,256.855,582.694,254.723,596.902z"/>
	<path fill="#33FF33" d="M383.544,578.686c-3.729,0.285-7.461,0.354-11.182,0.172c-35.673-1.724-75.595-9.746-111.907-14.354
		c-23.979-3.046-48.013,0.808-71.964,2.199c-12.882,0.751-25.97,1.912-38.796-0.177c-13.602-2.215-24.781-9.056-37.522-13.785
		c-14.19-5.271-27.522-12.726-41.36-18.69c-24.327-10.488-40.718-24.503-40.778-52.011c-0.029-13.587-0.938-25.688,3.245-38.938
		c4.245-13.438,11.4-25.821,19.542-37.25c16.066-22.551,36.343-41.576,55.981-60.929c31.134-30.686,67.116-56.479,96.094-89.361
		c27.632-31.354,45.971-71.932,94.807-60.66c44.58,10.29,73.296,48.115,96.523,83.03c21.146,31.786,51.222,53.593,74.437,83.319
		c23.815,30.495,48.131,66.237,58.188,102.239c11.825,42.336-12.614,61.919-49.593,79.27
		C450.175,556.404,416.872,576.15,383.544,578.686z"/>
	<path fill="#33FF33" d="M224.976,629.546c3.883-0.313,7.829-0.242,12.003,0.476c5.624,0.967,7.378-0.359,12.806-0.77
		c5.889-0.446,8.166,3.66,13.039,5.089c3.139,0.919,9.271,0.846,12.558,0.317c2.607-0.417,3.398-2.67,6.456-2.288
		c2.097,0.264,2.512,3.497,5.254,3.378c2.842-0.126,3.691-4.096,6.417-4.679c2.218-0.473,3.669,1.231,5.691,1.341
		c2.771,0.149,5.348-1.948,8.053-2.438c2.908-0.523,6.313-0.703,9.275-0.783c9.803-0.265,15.39,4.864,25.446-1.109
		c1.813-1.074,5.796-5.427,7.998-5.025c-4.224-0.767-8.67-4.146-11.469-7.703c-1.468-1.866-1.035-3.854-3.129-5.563
		c-2.465-2.017-4.404-1.07-6.949-2.628c-5.961-3.649-5.906-7.342-6.347-12.296c-0.244-2.72-0.688-5.701-1.468-8.324
		c-0.533-1.795-2.276-5.084-2.435-5.707c-1.459-5.71-0.863-12.405-0.631-18.447c0.2-5.212,2.071-12.869,0.124-17.712
		c-2.717-6.75-13.847-14.701-21.065-14.838c-6.97-0.133-14.456,2.972-21.829,3.013c-13.169,0.07-30.902-0.959-35.746,14.556
		c-3.949,12.657,2.942,26.866-1.471,39.122c-3.761,10.444-16.17,13.853-20.875,23.352c-2.026,4.087-1.767,9.115-3.712,13.384
		c-1.022,2.245-6.112,8.189-9.407,5.425C208.584,632.892,219.187,630.01,224.976,629.546z"/>
	<path fill="#33FF33" d="M254.723,596.902c-0.321,2.137-0.718,4.258-1.196,6.359c-2.172,9.548-4.579,19.076-5.862,28.799
		c-1.215,9.169,0.055,19.357-3.446,28.069c-3.133,7.803-8.402,7.772-15.999,7.835c-8.059,0.062-16.056,2.709-22.402,7.696
		c-2.77,2.18-4.751,5.623-7.735,7.456c-3.77,2.316-8.218,4.247-12.583,5.041c-3.487,0.637-12.331-1.733-15.074,0.204
		c-1.27,0.898-4.661,13.501-3.1,13.83c2.43,0.515,5.049-1.437,7.361-2.064c12.101-3.294,24.462-5.489,36.837-7.472
		c18.86-3.02,37.964-3.938,57.037-4.288c19.295-0.354,38.667-1.229,57.953-0.21c15.229,0.808,30.174,3.95,45.188,6.404
		c3.868,0.631,41.94,3.844,41.767,2.831c-1.713-9.915-13.237-5.726-19.024-8.377c-9.269-4.245-13.391-12.009-24.344-13.781
		c-3.047-0.492-4.602-1.247-7.5-2.724c-2.771-1.413-5.615-2.019-8.146-3.826c-5.457-3.901-12.159-6.301-18.627-7.896
		c-6.457-1.593-11.279-1.164-17.774-1.185c-2.789-0.009-9.385,0.896-11.665-0.366c-4.099-2.271-2.058-9.711-2.058-14.035
		c0-19.142,0.896-38.267,1.129-57.403c0.07-6.038-0.357-12.066-0.409-18.104c-0.053-6.102,0.466-10.291,1.938-16.229
		c1.332-5.399,3.424-6.955,1.275-12.681c-1.301-3.467-2.898-7.581-5.488-10.321c-6.471-6.854-15.861-0.824-23.635-3.244
		c-4.631-1.44-7.234-5.696-12.677-4.712c-3.143,0.564-6.062,1.938-8.335,4.2c-3.674,3.656-8.617,9.041-10.113,14.146
		c-1.409,4.817,1.073,9.13,2.722,13.553C255.774,567.895,256.855,582.694,254.723,596.902z"/>
	<circle fill="#FFFFFF" cx="264.926" cy="570.174" r="9.388"/>
	<circle cx="264.926" cy="570.174" r="4.589"/>
	<circle fill="#FFFFFF" cx="292.927" cy="570.174" r="9.389"/>
	<circle cx="292.928" cy="570.174" r="4.589"/>
	<path d="M266.728,554.276c0.399,0.732-3.819,2.078-8.535,4.644c-4.714,2.564-8.132,5.38-8.532,4.646
		c-0.401-0.734,3.096-3.409,7.81-5.975C262.184,555.026,266.327,553.539,266.728,554.276z"/>
	<path d="M287.967,557.251c-0.15,0.817,4.273,0.8,9.55,1.785c5.273,0.991,9.396,2.614,9.551,1.794s-3.995-2.291-9.271-3.275
		C292.522,556.565,288.121,556.427,287.967,557.251z"/>
	<path fill="#FFFFFF" d="M298.459,592.8c0,0-0.47,0.408-1.342,1.068c-0.871,0.66-2.133,1.582-3.727,2.575
		c-0.794,0.494-1.684,1.01-2.659,1.452c-0.969,0.464-2.009,0.922-3.084,1.381c-2.171,0.891-4.515,1.783-6.99,2.301
		c-1.208,0.272-2.511,0.351-3.742,0.358c-1.246-0.008-2.46-0.174-3.624-0.37c-1.157-0.229-2.27-0.493-3.293-0.835
		c-1.03-0.322-1.985-0.675-2.862-1.008c-1.744-0.693-3.174-1.316-4.171-1.765c-1-0.439-1.57-0.691-1.57-0.691l0.019-0.047
		c0,0,2.343,0.854,5.857,2.139c1.756,0.631,3.84,1.263,6.111,1.717c1.141,0.197,2.329,0.352,3.542,0.374
		c1.22,0.008,2.425-0.03,3.661-0.285c2.42-0.461,4.779-1.323,6.945-2.176c2.152-0.895,4.168-1.743,5.761-2.715
		c1.606-0.951,2.889-1.841,3.772-2.479c0.883-0.638,1.363-1.035,1.363-1.035L298.459,592.8z"/>
	<path fill="#FFFFFF" d="M298.444,592.78c0,0-2.583,2.883-3.422,3.905c-2.209,2.684-3.808,6.045-5.438,9.099
		c-1.312,2.449-3.586,2.913-6.201,2.938c-1.353,0.017-2.576,0.195-3.935,0.271c-1.285,0.07-2.694,0.387-3.872-0.173
		c-1.516-0.713-3.017-3.58-4.287-5.106c-1.025-1.231-5.676-4.519-5.676-4.519c-1.814-0.8,10.942,3.342,14.756,2.317
		C292.618,598.228,298.444,592.78,298.444,592.78z"/>
</g>
</svg>
